M48
;GenerationSoftware,Autodesk,EAGLE,9.6.2*%
;CreationDate,2021-12-15T09:47:59Z*%
FMAT,2
ICI,OFF
METRIC,TZ,000.000
T4C0.350
T3C0.889
T2C1.016
T1C3.175
%
G90
M71
T1
X3810Y81915
X87630Y49530
X3810Y3810
X87630Y3810
T2
X26670Y3810
X36830Y3810
X39370Y3810
X41910Y3810
X44450Y3810
X46990Y3810
X49530Y3810
X52070Y3810
X54610Y3810
X5080Y72390
X5080Y34290
X5080Y67310
X5080Y64770
X5080Y62230
X5080Y59690
X5080Y57150
X5080Y54610
X5080Y52070
X5080Y49530
X5080Y46990
X5080Y44450
X5080Y41910
X5080Y39370
X5080Y36830
X5080Y69850
X5080Y31750
X5080Y29210
X5080Y26670
X5080Y24130
X19050Y3810
X15240Y50800
X15240Y53340
X15240Y55880
X15240Y58420
X15240Y48260
X15240Y63500
X15240Y66040
X21590Y3810
X24130Y3810
X15240Y60960
T3
X81720Y17500
X79180Y14960
X79180Y17500
X76640Y14960
X76640Y17500
X74100Y14960
X74100Y17500
X71560Y14960
X71560Y17500
X69020Y14960
X69020Y17500
X66480Y14960
X66480Y17500
X63940Y14960
X63940Y17500
X61400Y14960
X61400Y17500
X58860Y14960
X58860Y17500
X56320Y14960
X56320Y17500
X53780Y14960
X53780Y17500
X51240Y14960
X51240Y17500
X48700Y14960
X48700Y17500
X46160Y14960
X46160Y17500
X43620Y14960
X43620Y17500
X41080Y14960
X41080Y17500
X84260Y40360
X84260Y42900
X81720Y40360
X81720Y42900
X79180Y40360
X79180Y42900
X76640Y40360
X76640Y42900
X74100Y40360
X74100Y42900
X71560Y40360
X69020Y40360
X69020Y42900
X66480Y40360
X66480Y42900
X63940Y40360
X63940Y42900
X61400Y40360
X61400Y42900
X58860Y40360
X58860Y42900
X56320Y40360
X56320Y42900
X53780Y40360
X71560Y42900
X51240Y40360
X51240Y42900
X48700Y40360
X48700Y42900
X46160Y40360
X46160Y42900
X43620Y40360
X43620Y42900
X41080Y40360
X41080Y42900
X84260Y14960
X84260Y17500
X81720Y14960
X53780Y42900
T4
X32385Y8255
M30