G04 EAGLE Gerber RS-274X export*
G75*
%MOMM*%
%FSLAX34Y34*%
%LPD*%
%INCopper Layer 2*%
%IPPOS*%
%AMOC8*
5,1,8,0,0,1.08239X$1,22.5*%
G01*
%ADD10C,1.422400*%
%ADD11C,1.244600*%
%ADD12C,4.191000*%
%ADD13C,0.654800*%

G36*
X910509Y2556D02*
X910509Y2556D01*
X910628Y2563D01*
X910667Y2575D01*
X910707Y2581D01*
X910817Y2624D01*
X910930Y2661D01*
X910965Y2683D01*
X911003Y2698D01*
X911099Y2767D01*
X911199Y2831D01*
X911227Y2861D01*
X911260Y2884D01*
X911336Y2976D01*
X911417Y3062D01*
X911437Y3098D01*
X911463Y3129D01*
X911513Y3237D01*
X911571Y3341D01*
X911581Y3380D01*
X911598Y3417D01*
X911621Y3534D01*
X911650Y3649D01*
X911654Y3709D01*
X911658Y3729D01*
X911657Y3750D01*
X911661Y3810D01*
X911858Y529590D01*
X911843Y529708D01*
X911836Y529827D01*
X911823Y529865D01*
X911818Y529905D01*
X911774Y530016D01*
X911738Y530129D01*
X911716Y530163D01*
X911701Y530201D01*
X911631Y530297D01*
X911567Y530398D01*
X911538Y530426D01*
X911514Y530458D01*
X911423Y530534D01*
X911336Y530616D01*
X911301Y530635D01*
X911270Y530661D01*
X911162Y530712D01*
X911057Y530770D01*
X911018Y530780D01*
X910982Y530797D01*
X910865Y530819D01*
X910749Y530849D01*
X910690Y530853D01*
X910670Y530857D01*
X910649Y530855D01*
X910589Y530859D01*
X189448Y530859D01*
X187959Y532348D01*
X187959Y853440D01*
X187944Y853558D01*
X187937Y853677D01*
X187924Y853715D01*
X187919Y853756D01*
X187876Y853866D01*
X187839Y853979D01*
X187817Y854014D01*
X187802Y854051D01*
X187733Y854147D01*
X187669Y854248D01*
X187639Y854276D01*
X187616Y854309D01*
X187524Y854385D01*
X187437Y854466D01*
X187402Y854486D01*
X187371Y854511D01*
X187263Y854562D01*
X187159Y854620D01*
X187119Y854630D01*
X187083Y854647D01*
X186966Y854669D01*
X186851Y854699D01*
X186791Y854703D01*
X186771Y854707D01*
X186750Y854705D01*
X186690Y854709D01*
X3810Y854709D01*
X3692Y854694D01*
X3573Y854687D01*
X3535Y854674D01*
X3494Y854669D01*
X3384Y854626D01*
X3271Y854589D01*
X3236Y854567D01*
X3199Y854552D01*
X3103Y854483D01*
X3002Y854419D01*
X2974Y854389D01*
X2941Y854366D01*
X2865Y854274D01*
X2784Y854187D01*
X2764Y854152D01*
X2739Y854121D01*
X2688Y854013D01*
X2630Y853909D01*
X2620Y853869D01*
X2603Y853833D01*
X2581Y853716D01*
X2551Y853601D01*
X2547Y853541D01*
X2543Y853521D01*
X2545Y853500D01*
X2541Y853440D01*
X2541Y3810D01*
X2556Y3692D01*
X2563Y3573D01*
X2576Y3535D01*
X2581Y3494D01*
X2624Y3384D01*
X2661Y3271D01*
X2683Y3236D01*
X2698Y3199D01*
X2767Y3103D01*
X2831Y3002D01*
X2861Y2974D01*
X2884Y2941D01*
X2976Y2865D01*
X3063Y2784D01*
X3098Y2764D01*
X3129Y2739D01*
X3237Y2688D01*
X3341Y2630D01*
X3381Y2620D01*
X3417Y2603D01*
X3534Y2581D01*
X3649Y2551D01*
X3709Y2547D01*
X3729Y2543D01*
X3750Y2545D01*
X3810Y2541D01*
X910391Y2541D01*
X910509Y2556D01*
G37*
%LPC*%
G36*
X33426Y795654D02*
X33426Y795654D01*
X24791Y799231D01*
X18181Y805841D01*
X14604Y814476D01*
X14604Y823824D01*
X18181Y832459D01*
X24791Y839069D01*
X33426Y842646D01*
X42774Y842646D01*
X51409Y839069D01*
X58019Y832459D01*
X61596Y823824D01*
X61596Y814476D01*
X58019Y805841D01*
X51409Y799231D01*
X42774Y795654D01*
X33426Y795654D01*
G37*
%LPD*%
%LPC*%
G36*
X871626Y471804D02*
X871626Y471804D01*
X862991Y475381D01*
X856381Y481991D01*
X852804Y490626D01*
X852804Y499974D01*
X856381Y508609D01*
X862991Y515219D01*
X871626Y518796D01*
X880974Y518796D01*
X889609Y515219D01*
X896219Y508609D01*
X899796Y499974D01*
X899796Y490626D01*
X896219Y481991D01*
X889609Y475381D01*
X880974Y471804D01*
X871626Y471804D01*
G37*
%LPD*%
%LPC*%
G36*
X33426Y14604D02*
X33426Y14604D01*
X24791Y18181D01*
X18181Y24791D01*
X14604Y33426D01*
X14604Y42774D01*
X18181Y51409D01*
X24791Y58019D01*
X33426Y61596D01*
X42774Y61596D01*
X51409Y58019D01*
X58019Y51409D01*
X61596Y42774D01*
X61596Y33426D01*
X58019Y24791D01*
X51409Y18181D01*
X42774Y14604D01*
X33426Y14604D01*
G37*
%LPD*%
%LPC*%
G36*
X871626Y14604D02*
X871626Y14604D01*
X862991Y18181D01*
X856381Y24791D01*
X852804Y33426D01*
X852804Y42774D01*
X856381Y51409D01*
X862991Y58019D01*
X871626Y61596D01*
X880974Y61596D01*
X889609Y58019D01*
X896219Y51409D01*
X899796Y42774D01*
X899796Y33426D01*
X896219Y24791D01*
X889609Y18181D01*
X880974Y14604D01*
X871626Y14604D01*
G37*
%LPD*%
%LPC*%
G36*
X417180Y28447D02*
X417180Y28447D01*
X413632Y29917D01*
X410917Y32632D01*
X409447Y36180D01*
X409447Y40020D01*
X410917Y43568D01*
X413632Y46283D01*
X417180Y47753D01*
X421020Y47753D01*
X424568Y46283D01*
X427283Y43568D01*
X428753Y40020D01*
X428753Y36180D01*
X427283Y32632D01*
X424568Y29917D01*
X421020Y28447D01*
X417180Y28447D01*
G37*
%LPD*%
%LPC*%
G36*
X442580Y28447D02*
X442580Y28447D01*
X439032Y29917D01*
X436317Y32632D01*
X434847Y36180D01*
X434847Y40020D01*
X436317Y43568D01*
X439032Y46283D01*
X442580Y47753D01*
X446420Y47753D01*
X449968Y46283D01*
X452683Y43568D01*
X454153Y40020D01*
X454153Y36180D01*
X452683Y32632D01*
X449968Y29917D01*
X446420Y28447D01*
X442580Y28447D01*
G37*
%LPD*%
%LPC*%
G36*
X48880Y688847D02*
X48880Y688847D01*
X45332Y690317D01*
X42617Y693032D01*
X41147Y696580D01*
X41147Y700420D01*
X42617Y703968D01*
X45332Y706683D01*
X48880Y708153D01*
X52720Y708153D01*
X56268Y706683D01*
X58983Y703968D01*
X60453Y700420D01*
X60453Y696580D01*
X58983Y693032D01*
X56268Y690317D01*
X52720Y688847D01*
X48880Y688847D01*
G37*
%LPD*%
%LPC*%
G36*
X48880Y663447D02*
X48880Y663447D01*
X45332Y664917D01*
X42617Y667632D01*
X41147Y671180D01*
X41147Y675020D01*
X42617Y678568D01*
X45332Y681283D01*
X48880Y682753D01*
X52720Y682753D01*
X56268Y681283D01*
X58983Y678568D01*
X60453Y675020D01*
X60453Y671180D01*
X58983Y667632D01*
X56268Y664917D01*
X52720Y663447D01*
X48880Y663447D01*
G37*
%LPD*%
%LPC*%
G36*
X150480Y650747D02*
X150480Y650747D01*
X146932Y652217D01*
X144217Y654932D01*
X142747Y658480D01*
X142747Y662320D01*
X144217Y665868D01*
X146932Y668583D01*
X150480Y670053D01*
X154320Y670053D01*
X157868Y668583D01*
X160583Y665868D01*
X162053Y662320D01*
X162053Y658480D01*
X160583Y654932D01*
X157868Y652217D01*
X154320Y650747D01*
X150480Y650747D01*
G37*
%LPD*%
%LPC*%
G36*
X48880Y638047D02*
X48880Y638047D01*
X45332Y639517D01*
X42617Y642232D01*
X41147Y645780D01*
X41147Y649620D01*
X42617Y653168D01*
X45332Y655883D01*
X48880Y657353D01*
X52720Y657353D01*
X56268Y655883D01*
X58983Y653168D01*
X60453Y649620D01*
X60453Y645780D01*
X58983Y642232D01*
X56268Y639517D01*
X52720Y638047D01*
X48880Y638047D01*
G37*
%LPD*%
%LPC*%
G36*
X150480Y625347D02*
X150480Y625347D01*
X146932Y626817D01*
X144217Y629532D01*
X142747Y633080D01*
X142747Y636920D01*
X144217Y640468D01*
X146932Y643183D01*
X150480Y644653D01*
X154320Y644653D01*
X157868Y643183D01*
X160583Y640468D01*
X162053Y636920D01*
X162053Y633080D01*
X160583Y629532D01*
X157868Y626817D01*
X154320Y625347D01*
X150480Y625347D01*
G37*
%LPD*%
%LPC*%
G36*
X48880Y612647D02*
X48880Y612647D01*
X45332Y614117D01*
X42617Y616832D01*
X41147Y620380D01*
X41147Y624220D01*
X42617Y627768D01*
X45332Y630483D01*
X48880Y631953D01*
X52720Y631953D01*
X56268Y630483D01*
X58983Y627768D01*
X60453Y624220D01*
X60453Y620380D01*
X58983Y616832D01*
X56268Y614117D01*
X52720Y612647D01*
X48880Y612647D01*
G37*
%LPD*%
%LPC*%
G36*
X150480Y599947D02*
X150480Y599947D01*
X146932Y601417D01*
X144217Y604132D01*
X142747Y607680D01*
X142747Y611520D01*
X144217Y615068D01*
X146932Y617783D01*
X150480Y619253D01*
X154320Y619253D01*
X157868Y617783D01*
X160583Y615068D01*
X162053Y611520D01*
X162053Y607680D01*
X160583Y604132D01*
X157868Y601417D01*
X154320Y599947D01*
X150480Y599947D01*
G37*
%LPD*%
%LPC*%
G36*
X48880Y587247D02*
X48880Y587247D01*
X45332Y588717D01*
X42617Y591432D01*
X41147Y594980D01*
X41147Y598820D01*
X42617Y602368D01*
X45332Y605083D01*
X48880Y606553D01*
X52720Y606553D01*
X56268Y605083D01*
X58983Y602368D01*
X60453Y598820D01*
X60453Y594980D01*
X58983Y591432D01*
X56268Y588717D01*
X52720Y587247D01*
X48880Y587247D01*
G37*
%LPD*%
%LPC*%
G36*
X150480Y574547D02*
X150480Y574547D01*
X146932Y576017D01*
X144217Y578732D01*
X142747Y582280D01*
X142747Y586120D01*
X144217Y589668D01*
X146932Y592383D01*
X150480Y593853D01*
X154320Y593853D01*
X157868Y592383D01*
X160583Y589668D01*
X162053Y586120D01*
X162053Y582280D01*
X160583Y578732D01*
X157868Y576017D01*
X154320Y574547D01*
X150480Y574547D01*
G37*
%LPD*%
%LPC*%
G36*
X48880Y561847D02*
X48880Y561847D01*
X45332Y563317D01*
X42617Y566032D01*
X41147Y569580D01*
X41147Y573420D01*
X42617Y576968D01*
X45332Y579683D01*
X48880Y581153D01*
X52720Y581153D01*
X56268Y579683D01*
X58983Y576968D01*
X60453Y573420D01*
X60453Y569580D01*
X58983Y566032D01*
X56268Y563317D01*
X52720Y561847D01*
X48880Y561847D01*
G37*
%LPD*%
%LPC*%
G36*
X150480Y549147D02*
X150480Y549147D01*
X146932Y550617D01*
X144217Y553332D01*
X142747Y556880D01*
X142747Y560720D01*
X144217Y564268D01*
X146932Y566983D01*
X150480Y568453D01*
X154320Y568453D01*
X157868Y566983D01*
X160583Y564268D01*
X162053Y560720D01*
X162053Y556880D01*
X160583Y553332D01*
X157868Y550617D01*
X154320Y549147D01*
X150480Y549147D01*
G37*
%LPD*%
%LPC*%
G36*
X48880Y536447D02*
X48880Y536447D01*
X45332Y537917D01*
X42617Y540632D01*
X41147Y544180D01*
X41147Y548020D01*
X42617Y551568D01*
X45332Y554283D01*
X48880Y555753D01*
X52720Y555753D01*
X56268Y554283D01*
X58983Y551568D01*
X60453Y548020D01*
X60453Y544180D01*
X58983Y540632D01*
X56268Y537917D01*
X52720Y536447D01*
X48880Y536447D01*
G37*
%LPD*%
%LPC*%
G36*
X150480Y523747D02*
X150480Y523747D01*
X146932Y525217D01*
X144217Y527932D01*
X142747Y531480D01*
X142747Y535320D01*
X144217Y538868D01*
X146932Y541583D01*
X150480Y543053D01*
X154320Y543053D01*
X157868Y541583D01*
X160583Y538868D01*
X162053Y535320D01*
X162053Y531480D01*
X160583Y527932D01*
X157868Y525217D01*
X154320Y523747D01*
X150480Y523747D01*
G37*
%LPD*%
%LPC*%
G36*
X48880Y511047D02*
X48880Y511047D01*
X45332Y512517D01*
X42617Y515232D01*
X41147Y518780D01*
X41147Y522620D01*
X42617Y526168D01*
X45332Y528883D01*
X48880Y530353D01*
X52720Y530353D01*
X56268Y528883D01*
X58983Y526168D01*
X60453Y522620D01*
X60453Y518780D01*
X58983Y515232D01*
X56268Y512517D01*
X52720Y511047D01*
X48880Y511047D01*
G37*
%LPD*%
%LPC*%
G36*
X213980Y28447D02*
X213980Y28447D01*
X210432Y29917D01*
X207717Y32632D01*
X206247Y36180D01*
X206247Y40020D01*
X207717Y43568D01*
X210432Y46283D01*
X213980Y47753D01*
X217820Y47753D01*
X221368Y46283D01*
X224083Y43568D01*
X225553Y40020D01*
X225553Y36180D01*
X224083Y32632D01*
X221368Y29917D01*
X217820Y28447D01*
X213980Y28447D01*
G37*
%LPD*%
%LPC*%
G36*
X467980Y28447D02*
X467980Y28447D01*
X464432Y29917D01*
X461717Y32632D01*
X460247Y36180D01*
X460247Y40020D01*
X461717Y43568D01*
X464432Y46283D01*
X467980Y47753D01*
X471820Y47753D01*
X475368Y46283D01*
X478083Y43568D01*
X479553Y40020D01*
X479553Y36180D01*
X478083Y32632D01*
X475368Y29917D01*
X471820Y28447D01*
X467980Y28447D01*
G37*
%LPD*%
%LPC*%
G36*
X493380Y28447D02*
X493380Y28447D01*
X489832Y29917D01*
X487117Y32632D01*
X485647Y36180D01*
X485647Y40020D01*
X487117Y43568D01*
X489832Y46283D01*
X493380Y47753D01*
X497220Y47753D01*
X500768Y46283D01*
X503483Y43568D01*
X504953Y40020D01*
X504953Y36180D01*
X503483Y32632D01*
X500768Y29917D01*
X497220Y28447D01*
X493380Y28447D01*
G37*
%LPD*%
%LPC*%
G36*
X544180Y28447D02*
X544180Y28447D01*
X540632Y29917D01*
X537917Y32632D01*
X536447Y36180D01*
X536447Y40020D01*
X537917Y43568D01*
X540632Y46283D01*
X544180Y47753D01*
X548020Y47753D01*
X551568Y46283D01*
X554283Y43568D01*
X555753Y40020D01*
X555753Y36180D01*
X554283Y32632D01*
X551568Y29917D01*
X548020Y28447D01*
X544180Y28447D01*
G37*
%LPD*%
%LPC*%
G36*
X264780Y28447D02*
X264780Y28447D01*
X261232Y29917D01*
X258517Y32632D01*
X257047Y36180D01*
X257047Y40020D01*
X258517Y43568D01*
X261232Y46283D01*
X264780Y47753D01*
X268620Y47753D01*
X272168Y46283D01*
X274883Y43568D01*
X276353Y40020D01*
X276353Y36180D01*
X274883Y32632D01*
X272168Y29917D01*
X268620Y28447D01*
X264780Y28447D01*
G37*
%LPD*%
%LPC*%
G36*
X366380Y28447D02*
X366380Y28447D01*
X362832Y29917D01*
X360117Y32632D01*
X358647Y36180D01*
X358647Y40020D01*
X360117Y43568D01*
X362832Y46283D01*
X366380Y47753D01*
X370220Y47753D01*
X373768Y46283D01*
X376483Y43568D01*
X377953Y40020D01*
X377953Y36180D01*
X376483Y32632D01*
X373768Y29917D01*
X370220Y28447D01*
X366380Y28447D01*
G37*
%LPD*%
%LPC*%
G36*
X48880Y485647D02*
X48880Y485647D01*
X45332Y487117D01*
X42617Y489832D01*
X41147Y493380D01*
X41147Y497220D01*
X42617Y500768D01*
X45332Y503483D01*
X48880Y504953D01*
X52720Y504953D01*
X56268Y503483D01*
X58983Y500768D01*
X60453Y497220D01*
X60453Y493380D01*
X58983Y489832D01*
X56268Y487117D01*
X52720Y485647D01*
X48880Y485647D01*
G37*
%LPD*%
%LPC*%
G36*
X150480Y472947D02*
X150480Y472947D01*
X146932Y474417D01*
X144217Y477132D01*
X142747Y480680D01*
X142747Y484520D01*
X144217Y488068D01*
X146932Y490783D01*
X150480Y492253D01*
X154320Y492253D01*
X157868Y490783D01*
X160583Y488068D01*
X162053Y484520D01*
X162053Y480680D01*
X160583Y477132D01*
X157868Y474417D01*
X154320Y472947D01*
X150480Y472947D01*
G37*
%LPD*%
%LPC*%
G36*
X48880Y460247D02*
X48880Y460247D01*
X45332Y461717D01*
X42617Y464432D01*
X41147Y467980D01*
X41147Y471820D01*
X42617Y475368D01*
X45332Y478083D01*
X48880Y479553D01*
X52720Y479553D01*
X56268Y478083D01*
X58983Y475368D01*
X60453Y471820D01*
X60453Y467980D01*
X58983Y464432D01*
X56268Y461717D01*
X52720Y460247D01*
X48880Y460247D01*
G37*
%LPD*%
%LPC*%
G36*
X48880Y434847D02*
X48880Y434847D01*
X45332Y436317D01*
X42617Y439032D01*
X41147Y442580D01*
X41147Y446420D01*
X42617Y449968D01*
X45332Y452683D01*
X48880Y454153D01*
X52720Y454153D01*
X56268Y452683D01*
X58983Y449968D01*
X60453Y446420D01*
X60453Y442580D01*
X58983Y439032D01*
X56268Y436317D01*
X52720Y434847D01*
X48880Y434847D01*
G37*
%LPD*%
%LPC*%
G36*
X48880Y409447D02*
X48880Y409447D01*
X45332Y410917D01*
X42617Y413632D01*
X41147Y417180D01*
X41147Y421020D01*
X42617Y424568D01*
X45332Y427283D01*
X48880Y428753D01*
X52720Y428753D01*
X56268Y427283D01*
X58983Y424568D01*
X60453Y421020D01*
X60453Y417180D01*
X58983Y413632D01*
X56268Y410917D01*
X52720Y409447D01*
X48880Y409447D01*
G37*
%LPD*%
%LPC*%
G36*
X518780Y28447D02*
X518780Y28447D01*
X515232Y29917D01*
X512517Y32632D01*
X511047Y36180D01*
X511047Y40020D01*
X512517Y43568D01*
X515232Y46283D01*
X518780Y47753D01*
X522620Y47753D01*
X526168Y46283D01*
X528883Y43568D01*
X530353Y40020D01*
X530353Y36180D01*
X528883Y32632D01*
X526168Y29917D01*
X522620Y28447D01*
X518780Y28447D01*
G37*
%LPD*%
%LPC*%
G36*
X48880Y231647D02*
X48880Y231647D01*
X45332Y233117D01*
X42617Y235832D01*
X41147Y239380D01*
X41147Y243220D01*
X42617Y246768D01*
X45332Y249483D01*
X48880Y250953D01*
X52720Y250953D01*
X56268Y249483D01*
X58983Y246768D01*
X60453Y243220D01*
X60453Y239380D01*
X58983Y235832D01*
X56268Y233117D01*
X52720Y231647D01*
X48880Y231647D01*
G37*
%LPD*%
%LPC*%
G36*
X48880Y257047D02*
X48880Y257047D01*
X45332Y258517D01*
X42617Y261232D01*
X41147Y264780D01*
X41147Y268620D01*
X42617Y272168D01*
X45332Y274883D01*
X48880Y276353D01*
X52720Y276353D01*
X56268Y274883D01*
X58983Y272168D01*
X60453Y268620D01*
X60453Y264780D01*
X58983Y261232D01*
X56268Y258517D01*
X52720Y257047D01*
X48880Y257047D01*
G37*
%LPD*%
%LPC*%
G36*
X48880Y282447D02*
X48880Y282447D01*
X45332Y283917D01*
X42617Y286632D01*
X41147Y290180D01*
X41147Y294020D01*
X42617Y297568D01*
X45332Y300283D01*
X48880Y301753D01*
X52720Y301753D01*
X56268Y300283D01*
X58983Y297568D01*
X60453Y294020D01*
X60453Y290180D01*
X58983Y286632D01*
X56268Y283917D01*
X52720Y282447D01*
X48880Y282447D01*
G37*
%LPD*%
%LPC*%
G36*
X48880Y384047D02*
X48880Y384047D01*
X45332Y385517D01*
X42617Y388232D01*
X41147Y391780D01*
X41147Y395620D01*
X42617Y399168D01*
X45332Y401883D01*
X48880Y403353D01*
X52720Y403353D01*
X56268Y401883D01*
X58983Y399168D01*
X60453Y395620D01*
X60453Y391780D01*
X58983Y388232D01*
X56268Y385517D01*
X52720Y384047D01*
X48880Y384047D01*
G37*
%LPD*%
%LPC*%
G36*
X48880Y307847D02*
X48880Y307847D01*
X45332Y309317D01*
X42617Y312032D01*
X41147Y315580D01*
X41147Y319420D01*
X42617Y322968D01*
X45332Y325683D01*
X48880Y327153D01*
X52720Y327153D01*
X56268Y325683D01*
X58983Y322968D01*
X60453Y319420D01*
X60453Y315580D01*
X58983Y312032D01*
X56268Y309317D01*
X52720Y307847D01*
X48880Y307847D01*
G37*
%LPD*%
%LPC*%
G36*
X48880Y333247D02*
X48880Y333247D01*
X45332Y334717D01*
X42617Y337432D01*
X41147Y340980D01*
X41147Y344820D01*
X42617Y348368D01*
X45332Y351083D01*
X48880Y352553D01*
X52720Y352553D01*
X56268Y351083D01*
X58983Y348368D01*
X60453Y344820D01*
X60453Y340980D01*
X58983Y337432D01*
X56268Y334717D01*
X52720Y333247D01*
X48880Y333247D01*
G37*
%LPD*%
%LPC*%
G36*
X48880Y358647D02*
X48880Y358647D01*
X45332Y360117D01*
X42617Y362832D01*
X41147Y366380D01*
X41147Y370220D01*
X42617Y373768D01*
X45332Y376483D01*
X48880Y377953D01*
X52720Y377953D01*
X56268Y376483D01*
X58983Y373768D01*
X60453Y370220D01*
X60453Y366380D01*
X58983Y362832D01*
X56268Y360117D01*
X52720Y358647D01*
X48880Y358647D01*
G37*
%LPD*%
%LPC*%
G36*
X188580Y28447D02*
X188580Y28447D01*
X185032Y29917D01*
X182317Y32632D01*
X180847Y36180D01*
X180847Y40020D01*
X182317Y43568D01*
X185032Y46283D01*
X188580Y47753D01*
X192420Y47753D01*
X195968Y46283D01*
X198683Y43568D01*
X200153Y40020D01*
X200153Y36180D01*
X198683Y32632D01*
X195968Y29917D01*
X192420Y28447D01*
X188580Y28447D01*
G37*
%LPD*%
%LPC*%
G36*
X409057Y420236D02*
X409057Y420236D01*
X405836Y421570D01*
X403370Y424036D01*
X402036Y427257D01*
X402036Y430743D01*
X403370Y433964D01*
X405836Y436430D01*
X409057Y437764D01*
X412543Y437764D01*
X415764Y436430D01*
X418230Y433964D01*
X419564Y430743D01*
X419564Y427257D01*
X418230Y424036D01*
X415764Y421570D01*
X412543Y420236D01*
X409057Y420236D01*
G37*
%LPD*%
%LPC*%
G36*
X840857Y420236D02*
X840857Y420236D01*
X837636Y421570D01*
X835170Y424036D01*
X833836Y427257D01*
X833836Y430743D01*
X835170Y433964D01*
X837636Y436430D01*
X840857Y437764D01*
X844343Y437764D01*
X847564Y436430D01*
X850030Y433964D01*
X851364Y430743D01*
X851364Y427257D01*
X850030Y424036D01*
X847564Y421570D01*
X844343Y420236D01*
X840857Y420236D01*
G37*
%LPD*%
%LPC*%
G36*
X815457Y420236D02*
X815457Y420236D01*
X812236Y421570D01*
X809770Y424036D01*
X808436Y427257D01*
X808436Y430743D01*
X809770Y433964D01*
X812236Y436430D01*
X815457Y437764D01*
X818943Y437764D01*
X822164Y436430D01*
X824630Y433964D01*
X825964Y430743D01*
X825964Y427257D01*
X824630Y424036D01*
X822164Y421570D01*
X818943Y420236D01*
X815457Y420236D01*
G37*
%LPD*%
%LPC*%
G36*
X790057Y420236D02*
X790057Y420236D01*
X786836Y421570D01*
X784370Y424036D01*
X783036Y427257D01*
X783036Y430743D01*
X784370Y433964D01*
X786836Y436430D01*
X790057Y437764D01*
X793543Y437764D01*
X796764Y436430D01*
X799230Y433964D01*
X800564Y430743D01*
X800564Y427257D01*
X799230Y424036D01*
X796764Y421570D01*
X793543Y420236D01*
X790057Y420236D01*
G37*
%LPD*%
%LPC*%
G36*
X764657Y420236D02*
X764657Y420236D01*
X761436Y421570D01*
X758970Y424036D01*
X757636Y427257D01*
X757636Y430743D01*
X758970Y433964D01*
X761436Y436430D01*
X764657Y437764D01*
X768143Y437764D01*
X771364Y436430D01*
X773830Y433964D01*
X775164Y430743D01*
X775164Y427257D01*
X773830Y424036D01*
X771364Y421570D01*
X768143Y420236D01*
X764657Y420236D01*
G37*
%LPD*%
%LPC*%
G36*
X739257Y420236D02*
X739257Y420236D01*
X736036Y421570D01*
X733570Y424036D01*
X732236Y427257D01*
X732236Y430743D01*
X733570Y433964D01*
X736036Y436430D01*
X739257Y437764D01*
X742743Y437764D01*
X745964Y436430D01*
X748430Y433964D01*
X749764Y430743D01*
X749764Y427257D01*
X748430Y424036D01*
X745964Y421570D01*
X742743Y420236D01*
X739257Y420236D01*
G37*
%LPD*%
%LPC*%
G36*
X713857Y420236D02*
X713857Y420236D01*
X710636Y421570D01*
X708170Y424036D01*
X706836Y427257D01*
X706836Y430743D01*
X708170Y433964D01*
X710636Y436430D01*
X713857Y437764D01*
X717343Y437764D01*
X720564Y436430D01*
X723030Y433964D01*
X724364Y430743D01*
X724364Y427257D01*
X723030Y424036D01*
X720564Y421570D01*
X717343Y420236D01*
X713857Y420236D01*
G37*
%LPD*%
%LPC*%
G36*
X688457Y420236D02*
X688457Y420236D01*
X685236Y421570D01*
X682770Y424036D01*
X681436Y427257D01*
X681436Y430743D01*
X682770Y433964D01*
X685236Y436430D01*
X688457Y437764D01*
X691943Y437764D01*
X695164Y436430D01*
X697630Y433964D01*
X698964Y430743D01*
X698964Y427257D01*
X697630Y424036D01*
X695164Y421570D01*
X691943Y420236D01*
X688457Y420236D01*
G37*
%LPD*%
%LPC*%
G36*
X663057Y420236D02*
X663057Y420236D01*
X659836Y421570D01*
X657370Y424036D01*
X656036Y427257D01*
X656036Y430743D01*
X657370Y433964D01*
X659836Y436430D01*
X663057Y437764D01*
X666543Y437764D01*
X669764Y436430D01*
X672230Y433964D01*
X673564Y430743D01*
X673564Y427257D01*
X672230Y424036D01*
X669764Y421570D01*
X666543Y420236D01*
X663057Y420236D01*
G37*
%LPD*%
%LPC*%
G36*
X637657Y420236D02*
X637657Y420236D01*
X634436Y421570D01*
X631970Y424036D01*
X630636Y427257D01*
X630636Y430743D01*
X631970Y433964D01*
X634436Y436430D01*
X637657Y437764D01*
X641143Y437764D01*
X644364Y436430D01*
X646830Y433964D01*
X648164Y430743D01*
X648164Y427257D01*
X646830Y424036D01*
X644364Y421570D01*
X641143Y420236D01*
X637657Y420236D01*
G37*
%LPD*%
%LPC*%
G36*
X612257Y420236D02*
X612257Y420236D01*
X609036Y421570D01*
X606570Y424036D01*
X605236Y427257D01*
X605236Y430743D01*
X606570Y433964D01*
X609036Y436430D01*
X612257Y437764D01*
X615743Y437764D01*
X618964Y436430D01*
X621430Y433964D01*
X622764Y430743D01*
X622764Y427257D01*
X621430Y424036D01*
X618964Y421570D01*
X615743Y420236D01*
X612257Y420236D01*
G37*
%LPD*%
%LPC*%
G36*
X586857Y420236D02*
X586857Y420236D01*
X583636Y421570D01*
X581170Y424036D01*
X579836Y427257D01*
X579836Y430743D01*
X581170Y433964D01*
X583636Y436430D01*
X586857Y437764D01*
X590343Y437764D01*
X593564Y436430D01*
X596030Y433964D01*
X597364Y430743D01*
X597364Y427257D01*
X596030Y424036D01*
X593564Y421570D01*
X590343Y420236D01*
X586857Y420236D01*
G37*
%LPD*%
%LPC*%
G36*
X561457Y420236D02*
X561457Y420236D01*
X558236Y421570D01*
X555770Y424036D01*
X554436Y427257D01*
X554436Y430743D01*
X555770Y433964D01*
X558236Y436430D01*
X561457Y437764D01*
X564943Y437764D01*
X568164Y436430D01*
X570630Y433964D01*
X571964Y430743D01*
X571964Y427257D01*
X570630Y424036D01*
X568164Y421570D01*
X564943Y420236D01*
X561457Y420236D01*
G37*
%LPD*%
%LPC*%
G36*
X536057Y420236D02*
X536057Y420236D01*
X532836Y421570D01*
X530370Y424036D01*
X529036Y427257D01*
X529036Y430743D01*
X530370Y433964D01*
X532836Y436430D01*
X536057Y437764D01*
X539543Y437764D01*
X542764Y436430D01*
X545230Y433964D01*
X546564Y430743D01*
X546564Y427257D01*
X545230Y424036D01*
X542764Y421570D01*
X539543Y420236D01*
X536057Y420236D01*
G37*
%LPD*%
%LPC*%
G36*
X510657Y420236D02*
X510657Y420236D01*
X507436Y421570D01*
X504970Y424036D01*
X503636Y427257D01*
X503636Y430743D01*
X504970Y433964D01*
X507436Y436430D01*
X510657Y437764D01*
X514143Y437764D01*
X517364Y436430D01*
X519830Y433964D01*
X521164Y430743D01*
X521164Y427257D01*
X519830Y424036D01*
X517364Y421570D01*
X514143Y420236D01*
X510657Y420236D01*
G37*
%LPD*%
%LPC*%
G36*
X485257Y420236D02*
X485257Y420236D01*
X482036Y421570D01*
X479570Y424036D01*
X478236Y427257D01*
X478236Y430743D01*
X479570Y433964D01*
X482036Y436430D01*
X485257Y437764D01*
X488743Y437764D01*
X491964Y436430D01*
X494430Y433964D01*
X495764Y430743D01*
X495764Y427257D01*
X494430Y424036D01*
X491964Y421570D01*
X488743Y420236D01*
X485257Y420236D01*
G37*
%LPD*%
%LPC*%
G36*
X459857Y420236D02*
X459857Y420236D01*
X456636Y421570D01*
X454170Y424036D01*
X452836Y427257D01*
X452836Y430743D01*
X454170Y433964D01*
X456636Y436430D01*
X459857Y437764D01*
X463343Y437764D01*
X466564Y436430D01*
X469030Y433964D01*
X470364Y430743D01*
X470364Y427257D01*
X469030Y424036D01*
X466564Y421570D01*
X463343Y420236D01*
X459857Y420236D01*
G37*
%LPD*%
%LPC*%
G36*
X840857Y394836D02*
X840857Y394836D01*
X837636Y396170D01*
X835170Y398636D01*
X833836Y401857D01*
X833836Y405343D01*
X835170Y408564D01*
X837636Y411030D01*
X840857Y412364D01*
X844343Y412364D01*
X847564Y411030D01*
X850030Y408564D01*
X851364Y405343D01*
X851364Y401857D01*
X850030Y398636D01*
X847564Y396170D01*
X844343Y394836D01*
X840857Y394836D01*
G37*
%LPD*%
%LPC*%
G36*
X815457Y394836D02*
X815457Y394836D01*
X812236Y396170D01*
X809770Y398636D01*
X808436Y401857D01*
X808436Y405343D01*
X809770Y408564D01*
X812236Y411030D01*
X815457Y412364D01*
X818943Y412364D01*
X822164Y411030D01*
X824630Y408564D01*
X825964Y405343D01*
X825964Y401857D01*
X824630Y398636D01*
X822164Y396170D01*
X818943Y394836D01*
X815457Y394836D01*
G37*
%LPD*%
%LPC*%
G36*
X790057Y394836D02*
X790057Y394836D01*
X786836Y396170D01*
X784370Y398636D01*
X783036Y401857D01*
X783036Y405343D01*
X784370Y408564D01*
X786836Y411030D01*
X790057Y412364D01*
X793543Y412364D01*
X796764Y411030D01*
X799230Y408564D01*
X800564Y405343D01*
X800564Y401857D01*
X799230Y398636D01*
X796764Y396170D01*
X793543Y394836D01*
X790057Y394836D01*
G37*
%LPD*%
%LPC*%
G36*
X764657Y394836D02*
X764657Y394836D01*
X761436Y396170D01*
X758970Y398636D01*
X757636Y401857D01*
X757636Y405343D01*
X758970Y408564D01*
X761436Y411030D01*
X764657Y412364D01*
X768143Y412364D01*
X771364Y411030D01*
X773830Y408564D01*
X775164Y405343D01*
X775164Y401857D01*
X773830Y398636D01*
X771364Y396170D01*
X768143Y394836D01*
X764657Y394836D01*
G37*
%LPD*%
%LPC*%
G36*
X739257Y394836D02*
X739257Y394836D01*
X736036Y396170D01*
X733570Y398636D01*
X732236Y401857D01*
X732236Y405343D01*
X733570Y408564D01*
X736036Y411030D01*
X739257Y412364D01*
X742743Y412364D01*
X745964Y411030D01*
X748430Y408564D01*
X749764Y405343D01*
X749764Y401857D01*
X748430Y398636D01*
X745964Y396170D01*
X742743Y394836D01*
X739257Y394836D01*
G37*
%LPD*%
%LPC*%
G36*
X713857Y394836D02*
X713857Y394836D01*
X710636Y396170D01*
X708170Y398636D01*
X706836Y401857D01*
X706836Y405343D01*
X708170Y408564D01*
X710636Y411030D01*
X713857Y412364D01*
X717343Y412364D01*
X720564Y411030D01*
X723030Y408564D01*
X724364Y405343D01*
X724364Y401857D01*
X723030Y398636D01*
X720564Y396170D01*
X717343Y394836D01*
X713857Y394836D01*
G37*
%LPD*%
%LPC*%
G36*
X688457Y394836D02*
X688457Y394836D01*
X685236Y396170D01*
X682770Y398636D01*
X681436Y401857D01*
X681436Y405343D01*
X682770Y408564D01*
X685236Y411030D01*
X688457Y412364D01*
X691943Y412364D01*
X695164Y411030D01*
X697630Y408564D01*
X698964Y405343D01*
X698964Y401857D01*
X697630Y398636D01*
X695164Y396170D01*
X691943Y394836D01*
X688457Y394836D01*
G37*
%LPD*%
%LPC*%
G36*
X637657Y394836D02*
X637657Y394836D01*
X634436Y396170D01*
X631970Y398636D01*
X630636Y401857D01*
X630636Y405343D01*
X631970Y408564D01*
X634436Y411030D01*
X637657Y412364D01*
X641143Y412364D01*
X644364Y411030D01*
X646830Y408564D01*
X648164Y405343D01*
X648164Y401857D01*
X646830Y398636D01*
X644364Y396170D01*
X641143Y394836D01*
X637657Y394836D01*
G37*
%LPD*%
%LPC*%
G36*
X612257Y394836D02*
X612257Y394836D01*
X609036Y396170D01*
X606570Y398636D01*
X605236Y401857D01*
X605236Y405343D01*
X606570Y408564D01*
X609036Y411030D01*
X612257Y412364D01*
X615743Y412364D01*
X618964Y411030D01*
X621430Y408564D01*
X622764Y405343D01*
X622764Y401857D01*
X621430Y398636D01*
X618964Y396170D01*
X615743Y394836D01*
X612257Y394836D01*
G37*
%LPD*%
%LPC*%
G36*
X561457Y394836D02*
X561457Y394836D01*
X558236Y396170D01*
X555770Y398636D01*
X554436Y401857D01*
X554436Y405343D01*
X555770Y408564D01*
X558236Y411030D01*
X561457Y412364D01*
X564943Y412364D01*
X568164Y411030D01*
X570630Y408564D01*
X571964Y405343D01*
X571964Y401857D01*
X570630Y398636D01*
X568164Y396170D01*
X564943Y394836D01*
X561457Y394836D01*
G37*
%LPD*%
%LPC*%
G36*
X536057Y394836D02*
X536057Y394836D01*
X532836Y396170D01*
X530370Y398636D01*
X529036Y401857D01*
X529036Y405343D01*
X530370Y408564D01*
X532836Y411030D01*
X536057Y412364D01*
X539543Y412364D01*
X542764Y411030D01*
X545230Y408564D01*
X546564Y405343D01*
X546564Y401857D01*
X545230Y398636D01*
X542764Y396170D01*
X539543Y394836D01*
X536057Y394836D01*
G37*
%LPD*%
%LPC*%
G36*
X510657Y394836D02*
X510657Y394836D01*
X507436Y396170D01*
X504970Y398636D01*
X503636Y401857D01*
X503636Y405343D01*
X504970Y408564D01*
X507436Y411030D01*
X510657Y412364D01*
X514143Y412364D01*
X517364Y411030D01*
X519830Y408564D01*
X521164Y405343D01*
X521164Y401857D01*
X519830Y398636D01*
X517364Y396170D01*
X514143Y394836D01*
X510657Y394836D01*
G37*
%LPD*%
%LPC*%
G36*
X485257Y394836D02*
X485257Y394836D01*
X482036Y396170D01*
X479570Y398636D01*
X478236Y401857D01*
X478236Y405343D01*
X479570Y408564D01*
X482036Y411030D01*
X485257Y412364D01*
X488743Y412364D01*
X491964Y411030D01*
X494430Y408564D01*
X495764Y405343D01*
X495764Y401857D01*
X494430Y398636D01*
X491964Y396170D01*
X488743Y394836D01*
X485257Y394836D01*
G37*
%LPD*%
%LPC*%
G36*
X459857Y394836D02*
X459857Y394836D01*
X456636Y396170D01*
X454170Y398636D01*
X452836Y401857D01*
X452836Y405343D01*
X454170Y408564D01*
X456636Y411030D01*
X459857Y412364D01*
X463343Y412364D01*
X466564Y411030D01*
X469030Y408564D01*
X470364Y405343D01*
X470364Y401857D01*
X469030Y398636D01*
X466564Y396170D01*
X463343Y394836D01*
X459857Y394836D01*
G37*
%LPD*%
%LPC*%
G36*
X434457Y394836D02*
X434457Y394836D01*
X431236Y396170D01*
X428770Y398636D01*
X427436Y401857D01*
X427436Y405343D01*
X428770Y408564D01*
X431236Y411030D01*
X434457Y412364D01*
X437943Y412364D01*
X441164Y411030D01*
X443630Y408564D01*
X444964Y405343D01*
X444964Y401857D01*
X443630Y398636D01*
X441164Y396170D01*
X437943Y394836D01*
X434457Y394836D01*
G37*
%LPD*%
%LPC*%
G36*
X409057Y394836D02*
X409057Y394836D01*
X405836Y396170D01*
X403370Y398636D01*
X402036Y401857D01*
X402036Y405343D01*
X403370Y408564D01*
X405836Y411030D01*
X409057Y412364D01*
X412543Y412364D01*
X415764Y411030D01*
X418230Y408564D01*
X419564Y405343D01*
X419564Y401857D01*
X418230Y398636D01*
X415764Y396170D01*
X412543Y394836D01*
X409057Y394836D01*
G37*
%LPD*%
%LPC*%
G36*
X561457Y166236D02*
X561457Y166236D01*
X558236Y167570D01*
X555770Y170036D01*
X554436Y173257D01*
X554436Y176743D01*
X555770Y179964D01*
X558236Y182430D01*
X561457Y183764D01*
X564943Y183764D01*
X568164Y182430D01*
X570630Y179964D01*
X571964Y176743D01*
X571964Y173257D01*
X570630Y170036D01*
X568164Y167570D01*
X564943Y166236D01*
X561457Y166236D01*
G37*
%LPD*%
%LPC*%
G36*
X815457Y166236D02*
X815457Y166236D01*
X812236Y167570D01*
X809770Y170036D01*
X808436Y173257D01*
X808436Y176743D01*
X809770Y179964D01*
X812236Y182430D01*
X815457Y183764D01*
X818943Y183764D01*
X822164Y182430D01*
X824630Y179964D01*
X825964Y176743D01*
X825964Y173257D01*
X824630Y170036D01*
X822164Y167570D01*
X818943Y166236D01*
X815457Y166236D01*
G37*
%LPD*%
%LPC*%
G36*
X790057Y166236D02*
X790057Y166236D01*
X786836Y167570D01*
X784370Y170036D01*
X783036Y173257D01*
X783036Y176743D01*
X784370Y179964D01*
X786836Y182430D01*
X790057Y183764D01*
X793543Y183764D01*
X796764Y182430D01*
X799230Y179964D01*
X800564Y176743D01*
X800564Y173257D01*
X799230Y170036D01*
X796764Y167570D01*
X793543Y166236D01*
X790057Y166236D01*
G37*
%LPD*%
%LPC*%
G36*
X840857Y166236D02*
X840857Y166236D01*
X837636Y167570D01*
X835170Y170036D01*
X833836Y173257D01*
X833836Y176743D01*
X835170Y179964D01*
X837636Y182430D01*
X840857Y183764D01*
X844343Y183764D01*
X847564Y182430D01*
X850030Y179964D01*
X851364Y176743D01*
X851364Y173257D01*
X850030Y170036D01*
X847564Y167570D01*
X844343Y166236D01*
X840857Y166236D01*
G37*
%LPD*%
%LPC*%
G36*
X536057Y166236D02*
X536057Y166236D01*
X532836Y167570D01*
X530370Y170036D01*
X529036Y173257D01*
X529036Y176743D01*
X530370Y179964D01*
X532836Y182430D01*
X536057Y183764D01*
X539543Y183764D01*
X542764Y182430D01*
X545230Y179964D01*
X546564Y176743D01*
X546564Y173257D01*
X545230Y170036D01*
X542764Y167570D01*
X539543Y166236D01*
X536057Y166236D01*
G37*
%LPD*%
%LPC*%
G36*
X510657Y166236D02*
X510657Y166236D01*
X507436Y167570D01*
X504970Y170036D01*
X503636Y173257D01*
X503636Y176743D01*
X504970Y179964D01*
X507436Y182430D01*
X510657Y183764D01*
X514143Y183764D01*
X517364Y182430D01*
X519830Y179964D01*
X521164Y176743D01*
X521164Y173257D01*
X519830Y170036D01*
X517364Y167570D01*
X514143Y166236D01*
X510657Y166236D01*
G37*
%LPD*%
%LPC*%
G36*
X764657Y166236D02*
X764657Y166236D01*
X761436Y167570D01*
X758970Y170036D01*
X757636Y173257D01*
X757636Y176743D01*
X758970Y179964D01*
X761436Y182430D01*
X764657Y183764D01*
X768143Y183764D01*
X771364Y182430D01*
X773830Y179964D01*
X775164Y176743D01*
X775164Y173257D01*
X773830Y170036D01*
X771364Y167570D01*
X768143Y166236D01*
X764657Y166236D01*
G37*
%LPD*%
%LPC*%
G36*
X739257Y166236D02*
X739257Y166236D01*
X736036Y167570D01*
X733570Y170036D01*
X732236Y173257D01*
X732236Y176743D01*
X733570Y179964D01*
X736036Y182430D01*
X739257Y183764D01*
X742743Y183764D01*
X745964Y182430D01*
X748430Y179964D01*
X749764Y176743D01*
X749764Y173257D01*
X748430Y170036D01*
X745964Y167570D01*
X742743Y166236D01*
X739257Y166236D01*
G37*
%LPD*%
%LPC*%
G36*
X713857Y166236D02*
X713857Y166236D01*
X710636Y167570D01*
X708170Y170036D01*
X706836Y173257D01*
X706836Y176743D01*
X708170Y179964D01*
X710636Y182430D01*
X713857Y183764D01*
X717343Y183764D01*
X720564Y182430D01*
X723030Y179964D01*
X724364Y176743D01*
X724364Y173257D01*
X723030Y170036D01*
X720564Y167570D01*
X717343Y166236D01*
X713857Y166236D01*
G37*
%LPD*%
%LPC*%
G36*
X688457Y166236D02*
X688457Y166236D01*
X685236Y167570D01*
X682770Y170036D01*
X681436Y173257D01*
X681436Y176743D01*
X682770Y179964D01*
X685236Y182430D01*
X688457Y183764D01*
X691943Y183764D01*
X695164Y182430D01*
X697630Y179964D01*
X698964Y176743D01*
X698964Y173257D01*
X697630Y170036D01*
X695164Y167570D01*
X691943Y166236D01*
X688457Y166236D01*
G37*
%LPD*%
%LPC*%
G36*
X637657Y166236D02*
X637657Y166236D01*
X634436Y167570D01*
X631970Y170036D01*
X630636Y173257D01*
X630636Y176743D01*
X631970Y179964D01*
X634436Y182430D01*
X637657Y183764D01*
X641143Y183764D01*
X644364Y182430D01*
X646830Y179964D01*
X648164Y176743D01*
X648164Y173257D01*
X646830Y170036D01*
X644364Y167570D01*
X641143Y166236D01*
X637657Y166236D01*
G37*
%LPD*%
%LPC*%
G36*
X612257Y166236D02*
X612257Y166236D01*
X609036Y167570D01*
X606570Y170036D01*
X605236Y173257D01*
X605236Y176743D01*
X606570Y179964D01*
X609036Y182430D01*
X612257Y183764D01*
X615743Y183764D01*
X618964Y182430D01*
X621430Y179964D01*
X622764Y176743D01*
X622764Y173257D01*
X621430Y170036D01*
X618964Y167570D01*
X615743Y166236D01*
X612257Y166236D01*
G37*
%LPD*%
%LPC*%
G36*
X485257Y166236D02*
X485257Y166236D01*
X482036Y167570D01*
X479570Y170036D01*
X478236Y173257D01*
X478236Y176743D01*
X479570Y179964D01*
X482036Y182430D01*
X485257Y183764D01*
X488743Y183764D01*
X491964Y182430D01*
X494430Y179964D01*
X495764Y176743D01*
X495764Y173257D01*
X494430Y170036D01*
X491964Y167570D01*
X488743Y166236D01*
X485257Y166236D01*
G37*
%LPD*%
%LPC*%
G36*
X459857Y166236D02*
X459857Y166236D01*
X456636Y167570D01*
X454170Y170036D01*
X452836Y173257D01*
X452836Y176743D01*
X454170Y179964D01*
X456636Y182430D01*
X459857Y183764D01*
X463343Y183764D01*
X466564Y182430D01*
X469030Y179964D01*
X470364Y176743D01*
X470364Y173257D01*
X469030Y170036D01*
X466564Y167570D01*
X463343Y166236D01*
X459857Y166236D01*
G37*
%LPD*%
%LPC*%
G36*
X434457Y166236D02*
X434457Y166236D01*
X431236Y167570D01*
X428770Y170036D01*
X427436Y173257D01*
X427436Y176743D01*
X428770Y179964D01*
X431236Y182430D01*
X434457Y183764D01*
X437943Y183764D01*
X441164Y182430D01*
X443630Y179964D01*
X444964Y176743D01*
X444964Y173257D01*
X443630Y170036D01*
X441164Y167570D01*
X437943Y166236D01*
X434457Y166236D01*
G37*
%LPD*%
%LPC*%
G36*
X409057Y166236D02*
X409057Y166236D01*
X405836Y167570D01*
X403370Y170036D01*
X402036Y173257D01*
X402036Y176743D01*
X403370Y179964D01*
X405836Y182430D01*
X409057Y183764D01*
X412543Y183764D01*
X415764Y182430D01*
X418230Y179964D01*
X419564Y176743D01*
X419564Y173257D01*
X418230Y170036D01*
X415764Y167570D01*
X412543Y166236D01*
X409057Y166236D01*
G37*
%LPD*%
%LPC*%
G36*
X434457Y140836D02*
X434457Y140836D01*
X431236Y142170D01*
X428770Y144636D01*
X427436Y147857D01*
X427436Y151343D01*
X428770Y154564D01*
X431236Y157030D01*
X434457Y158364D01*
X437943Y158364D01*
X441164Y157030D01*
X443630Y154564D01*
X444964Y151343D01*
X444964Y147857D01*
X443630Y144636D01*
X441164Y142170D01*
X437943Y140836D01*
X434457Y140836D01*
G37*
%LPD*%
%LPC*%
G36*
X409057Y140836D02*
X409057Y140836D01*
X405836Y142170D01*
X403370Y144636D01*
X402036Y147857D01*
X402036Y151343D01*
X403370Y154564D01*
X405836Y157030D01*
X409057Y158364D01*
X412543Y158364D01*
X415764Y157030D01*
X418230Y154564D01*
X419564Y151343D01*
X419564Y147857D01*
X418230Y144636D01*
X415764Y142170D01*
X412543Y140836D01*
X409057Y140836D01*
G37*
%LPD*%
%LPC*%
G36*
X840857Y140836D02*
X840857Y140836D01*
X837636Y142170D01*
X835170Y144636D01*
X833836Y147857D01*
X833836Y151343D01*
X835170Y154564D01*
X837636Y157030D01*
X840857Y158364D01*
X844343Y158364D01*
X847564Y157030D01*
X850030Y154564D01*
X851364Y151343D01*
X851364Y147857D01*
X850030Y144636D01*
X847564Y142170D01*
X844343Y140836D01*
X840857Y140836D01*
G37*
%LPD*%
%LPC*%
G36*
X815457Y140836D02*
X815457Y140836D01*
X812236Y142170D01*
X809770Y144636D01*
X808436Y147857D01*
X808436Y151343D01*
X809770Y154564D01*
X812236Y157030D01*
X815457Y158364D01*
X818943Y158364D01*
X822164Y157030D01*
X824630Y154564D01*
X825964Y151343D01*
X825964Y147857D01*
X824630Y144636D01*
X822164Y142170D01*
X818943Y140836D01*
X815457Y140836D01*
G37*
%LPD*%
%LPC*%
G36*
X790057Y140836D02*
X790057Y140836D01*
X786836Y142170D01*
X784370Y144636D01*
X783036Y147857D01*
X783036Y151343D01*
X784370Y154564D01*
X786836Y157030D01*
X790057Y158364D01*
X793543Y158364D01*
X796764Y157030D01*
X799230Y154564D01*
X800564Y151343D01*
X800564Y147857D01*
X799230Y144636D01*
X796764Y142170D01*
X793543Y140836D01*
X790057Y140836D01*
G37*
%LPD*%
%LPC*%
G36*
X764657Y140836D02*
X764657Y140836D01*
X761436Y142170D01*
X758970Y144636D01*
X757636Y147857D01*
X757636Y151343D01*
X758970Y154564D01*
X761436Y157030D01*
X764657Y158364D01*
X768143Y158364D01*
X771364Y157030D01*
X773830Y154564D01*
X775164Y151343D01*
X775164Y147857D01*
X773830Y144636D01*
X771364Y142170D01*
X768143Y140836D01*
X764657Y140836D01*
G37*
%LPD*%
%LPC*%
G36*
X739257Y140836D02*
X739257Y140836D01*
X736036Y142170D01*
X733570Y144636D01*
X732236Y147857D01*
X732236Y151343D01*
X733570Y154564D01*
X736036Y157030D01*
X739257Y158364D01*
X742743Y158364D01*
X745964Y157030D01*
X748430Y154564D01*
X749764Y151343D01*
X749764Y147857D01*
X748430Y144636D01*
X745964Y142170D01*
X742743Y140836D01*
X739257Y140836D01*
G37*
%LPD*%
%LPC*%
G36*
X688457Y140836D02*
X688457Y140836D01*
X685236Y142170D01*
X682770Y144636D01*
X681436Y147857D01*
X681436Y151343D01*
X682770Y154564D01*
X685236Y157030D01*
X688457Y158364D01*
X691943Y158364D01*
X695164Y157030D01*
X697630Y154564D01*
X698964Y151343D01*
X698964Y147857D01*
X697630Y144636D01*
X695164Y142170D01*
X691943Y140836D01*
X688457Y140836D01*
G37*
%LPD*%
%LPC*%
G36*
X637657Y140836D02*
X637657Y140836D01*
X634436Y142170D01*
X631970Y144636D01*
X630636Y147857D01*
X630636Y151343D01*
X631970Y154564D01*
X634436Y157030D01*
X637657Y158364D01*
X641143Y158364D01*
X644364Y157030D01*
X646830Y154564D01*
X648164Y151343D01*
X648164Y147857D01*
X646830Y144636D01*
X644364Y142170D01*
X641143Y140836D01*
X637657Y140836D01*
G37*
%LPD*%
%LPC*%
G36*
X612257Y140836D02*
X612257Y140836D01*
X609036Y142170D01*
X606570Y144636D01*
X605236Y147857D01*
X605236Y151343D01*
X606570Y154564D01*
X609036Y157030D01*
X612257Y158364D01*
X615743Y158364D01*
X618964Y157030D01*
X621430Y154564D01*
X622764Y151343D01*
X622764Y147857D01*
X621430Y144636D01*
X618964Y142170D01*
X615743Y140836D01*
X612257Y140836D01*
G37*
%LPD*%
%LPC*%
G36*
X586857Y140836D02*
X586857Y140836D01*
X583636Y142170D01*
X581170Y144636D01*
X579836Y147857D01*
X579836Y151343D01*
X581170Y154564D01*
X583636Y157030D01*
X586857Y158364D01*
X590343Y158364D01*
X593564Y157030D01*
X596030Y154564D01*
X597364Y151343D01*
X597364Y147857D01*
X596030Y144636D01*
X593564Y142170D01*
X590343Y140836D01*
X586857Y140836D01*
G37*
%LPD*%
%LPC*%
G36*
X561457Y140836D02*
X561457Y140836D01*
X558236Y142170D01*
X555770Y144636D01*
X554436Y147857D01*
X554436Y151343D01*
X555770Y154564D01*
X558236Y157030D01*
X561457Y158364D01*
X564943Y158364D01*
X568164Y157030D01*
X570630Y154564D01*
X571964Y151343D01*
X571964Y147857D01*
X570630Y144636D01*
X568164Y142170D01*
X564943Y140836D01*
X561457Y140836D01*
G37*
%LPD*%
%LPC*%
G36*
X536057Y140836D02*
X536057Y140836D01*
X532836Y142170D01*
X530370Y144636D01*
X529036Y147857D01*
X529036Y151343D01*
X530370Y154564D01*
X532836Y157030D01*
X536057Y158364D01*
X539543Y158364D01*
X542764Y157030D01*
X545230Y154564D01*
X546564Y151343D01*
X546564Y147857D01*
X545230Y144636D01*
X542764Y142170D01*
X539543Y140836D01*
X536057Y140836D01*
G37*
%LPD*%
%LPC*%
G36*
X510657Y140836D02*
X510657Y140836D01*
X507436Y142170D01*
X504970Y144636D01*
X503636Y147857D01*
X503636Y151343D01*
X504970Y154564D01*
X507436Y157030D01*
X510657Y158364D01*
X514143Y158364D01*
X517364Y157030D01*
X519830Y154564D01*
X521164Y151343D01*
X521164Y147857D01*
X519830Y144636D01*
X517364Y142170D01*
X514143Y140836D01*
X510657Y140836D01*
G37*
%LPD*%
%LPC*%
G36*
X485257Y140836D02*
X485257Y140836D01*
X482036Y142170D01*
X479570Y144636D01*
X478236Y147857D01*
X478236Y151343D01*
X479570Y154564D01*
X482036Y157030D01*
X485257Y158364D01*
X488743Y158364D01*
X491964Y157030D01*
X494430Y154564D01*
X495764Y151343D01*
X495764Y147857D01*
X494430Y144636D01*
X491964Y142170D01*
X488743Y140836D01*
X485257Y140836D01*
G37*
%LPD*%
%LPC*%
G36*
X459857Y140836D02*
X459857Y140836D01*
X456636Y142170D01*
X454170Y144636D01*
X452836Y147857D01*
X452836Y151343D01*
X454170Y154564D01*
X456636Y157030D01*
X459857Y158364D01*
X463343Y158364D01*
X466564Y157030D01*
X469030Y154564D01*
X470364Y151343D01*
X470364Y147857D01*
X469030Y144636D01*
X466564Y142170D01*
X463343Y140836D01*
X459857Y140836D01*
G37*
%LPD*%
%LPC*%
G36*
X713857Y140836D02*
X713857Y140836D01*
X710636Y142170D01*
X708170Y144636D01*
X706836Y147857D01*
X706836Y151343D01*
X708170Y154564D01*
X710636Y157030D01*
X713857Y158364D01*
X717343Y158364D01*
X720564Y157030D01*
X723030Y154564D01*
X724364Y151343D01*
X724364Y147857D01*
X723030Y144636D01*
X720564Y142170D01*
X717343Y140836D01*
X713857Y140836D01*
G37*
%LPD*%
%LPC*%
G36*
X434457Y420236D02*
X434457Y420236D01*
X431236Y421570D01*
X428770Y424036D01*
X427436Y427257D01*
X427436Y430743D01*
X428770Y433964D01*
X431236Y436430D01*
X434457Y437764D01*
X437943Y437764D01*
X441164Y436430D01*
X443630Y433964D01*
X444964Y430743D01*
X444964Y427257D01*
X443630Y424036D01*
X441164Y421570D01*
X437943Y420236D01*
X434457Y420236D01*
G37*
%LPD*%
%LPC*%
G36*
X322693Y76735D02*
X322693Y76735D01*
X320556Y77620D01*
X318920Y79256D01*
X318035Y81393D01*
X318035Y83707D01*
X318920Y85844D01*
X320556Y87480D01*
X322693Y88365D01*
X325007Y88365D01*
X327144Y87480D01*
X328780Y85844D01*
X329665Y83707D01*
X329665Y81393D01*
X328780Y79256D01*
X327144Y77620D01*
X325007Y76735D01*
X322693Y76735D01*
G37*
%LPD*%
%LPC*%
G36*
X53339Y726439D02*
X53339Y726439D01*
X53339Y733224D01*
X54505Y732846D01*
X55859Y732156D01*
X57088Y731263D01*
X58163Y730188D01*
X59056Y728959D01*
X59746Y727605D01*
X60124Y726439D01*
X53339Y726439D01*
G37*
%LPD*%
%LPC*%
G36*
X154939Y510539D02*
X154939Y510539D01*
X154939Y517324D01*
X156105Y516946D01*
X157459Y516256D01*
X158688Y515363D01*
X159763Y514288D01*
X160656Y513059D01*
X161346Y511705D01*
X161724Y510539D01*
X154939Y510539D01*
G37*
%LPD*%
%LPC*%
G36*
X396239Y40639D02*
X396239Y40639D01*
X396239Y47424D01*
X397405Y47046D01*
X398759Y46356D01*
X399988Y45463D01*
X401063Y44388D01*
X401956Y43159D01*
X402646Y41805D01*
X403024Y40639D01*
X396239Y40639D01*
G37*
%LPD*%
%LPC*%
G36*
X243839Y40639D02*
X243839Y40639D01*
X243839Y47424D01*
X245005Y47046D01*
X246359Y46356D01*
X247588Y45463D01*
X248663Y44388D01*
X249556Y43159D01*
X250246Y41805D01*
X250624Y40639D01*
X243839Y40639D01*
G37*
%LPD*%
%LPC*%
G36*
X154939Y505461D02*
X154939Y505461D01*
X161724Y505461D01*
X161346Y504295D01*
X160656Y502941D01*
X159763Y501712D01*
X158688Y500637D01*
X157459Y499744D01*
X156105Y499054D01*
X154939Y498676D01*
X154939Y505461D01*
G37*
%LPD*%
%LPC*%
G36*
X41476Y726439D02*
X41476Y726439D01*
X41854Y727605D01*
X42544Y728959D01*
X43437Y730188D01*
X44512Y731263D01*
X45741Y732156D01*
X47095Y732846D01*
X48261Y733224D01*
X48261Y726439D01*
X41476Y726439D01*
G37*
%LPD*%
%LPC*%
G36*
X53339Y721361D02*
X53339Y721361D01*
X60124Y721361D01*
X59746Y720195D01*
X59056Y718841D01*
X58163Y717612D01*
X57088Y716537D01*
X55859Y715644D01*
X54505Y714954D01*
X53339Y714576D01*
X53339Y721361D01*
G37*
%LPD*%
%LPC*%
G36*
X143076Y510539D02*
X143076Y510539D01*
X143454Y511705D01*
X144144Y513059D01*
X145037Y514288D01*
X146112Y515363D01*
X147341Y516256D01*
X148695Y516946D01*
X149861Y517324D01*
X149861Y510539D01*
X143076Y510539D01*
G37*
%LPD*%
%LPC*%
G36*
X243839Y35561D02*
X243839Y35561D01*
X250624Y35561D01*
X250246Y34395D01*
X249556Y33041D01*
X248663Y31812D01*
X247588Y30737D01*
X246359Y29844D01*
X245005Y29154D01*
X243839Y28776D01*
X243839Y35561D01*
G37*
%LPD*%
%LPC*%
G36*
X396239Y35561D02*
X396239Y35561D01*
X403024Y35561D01*
X402646Y34395D01*
X401956Y33041D01*
X401063Y31812D01*
X399988Y30737D01*
X398759Y29844D01*
X397405Y29154D01*
X396239Y28776D01*
X396239Y35561D01*
G37*
%LPD*%
%LPC*%
G36*
X384376Y40639D02*
X384376Y40639D01*
X384754Y41805D01*
X385444Y43159D01*
X386337Y44388D01*
X387412Y45463D01*
X388641Y46356D01*
X389995Y47046D01*
X391161Y47424D01*
X391161Y40639D01*
X384376Y40639D01*
G37*
%LPD*%
%LPC*%
G36*
X231976Y40639D02*
X231976Y40639D01*
X232354Y41805D01*
X233044Y43159D01*
X233937Y44388D01*
X235012Y45463D01*
X236241Y46356D01*
X237595Y47046D01*
X238761Y47424D01*
X238761Y40639D01*
X231976Y40639D01*
G37*
%LPD*%
%LPC*%
G36*
X47095Y714954D02*
X47095Y714954D01*
X45741Y715644D01*
X44512Y716537D01*
X43437Y717612D01*
X42544Y718841D01*
X41854Y720195D01*
X41476Y721361D01*
X48261Y721361D01*
X48261Y714576D01*
X47095Y714954D01*
G37*
%LPD*%
%LPC*%
G36*
X389995Y29154D02*
X389995Y29154D01*
X388641Y29844D01*
X387412Y30737D01*
X386337Y31812D01*
X385444Y33041D01*
X384754Y34395D01*
X384376Y35561D01*
X391161Y35561D01*
X391161Y28776D01*
X389995Y29154D01*
G37*
%LPD*%
%LPC*%
G36*
X148695Y499054D02*
X148695Y499054D01*
X147341Y499744D01*
X146112Y500637D01*
X145037Y501712D01*
X144144Y502941D01*
X143454Y504295D01*
X143076Y505461D01*
X149861Y505461D01*
X149861Y498676D01*
X148695Y499054D01*
G37*
%LPD*%
%LPC*%
G36*
X237595Y29154D02*
X237595Y29154D01*
X236241Y29844D01*
X235012Y30737D01*
X233937Y31812D01*
X233044Y33041D01*
X232354Y34395D01*
X231976Y35561D01*
X238761Y35561D01*
X238761Y28776D01*
X237595Y29154D01*
G37*
%LPD*%
%LPC*%
G36*
X590822Y177222D02*
X590822Y177222D01*
X590822Y183493D01*
X591156Y183427D01*
X592751Y182766D01*
X594187Y181807D01*
X595407Y180587D01*
X596366Y179151D01*
X597027Y177556D01*
X597093Y177222D01*
X590822Y177222D01*
G37*
%LPD*%
%LPC*%
G36*
X667022Y151822D02*
X667022Y151822D01*
X667022Y158093D01*
X667356Y158027D01*
X668951Y157366D01*
X670387Y156407D01*
X671607Y155187D01*
X672566Y153751D01*
X673227Y152156D01*
X673293Y151822D01*
X667022Y151822D01*
G37*
%LPD*%
%LPC*%
G36*
X667022Y405822D02*
X667022Y405822D01*
X667022Y412093D01*
X667356Y412027D01*
X668951Y411366D01*
X670387Y410407D01*
X671607Y409187D01*
X672566Y407751D01*
X673227Y406156D01*
X673293Y405822D01*
X667022Y405822D01*
G37*
%LPD*%
%LPC*%
G36*
X667022Y177222D02*
X667022Y177222D01*
X667022Y183493D01*
X667356Y183427D01*
X668951Y182766D01*
X670387Y181807D01*
X671607Y180587D01*
X672566Y179151D01*
X673227Y177556D01*
X673293Y177222D01*
X667022Y177222D01*
G37*
%LPD*%
%LPC*%
G36*
X590822Y405822D02*
X590822Y405822D01*
X590822Y412093D01*
X591156Y412027D01*
X592751Y411366D01*
X594187Y410407D01*
X595407Y409187D01*
X596366Y407751D01*
X597027Y406156D01*
X597093Y405822D01*
X590822Y405822D01*
G37*
%LPD*%
%LPC*%
G36*
X667022Y401378D02*
X667022Y401378D01*
X673293Y401378D01*
X673227Y401044D01*
X672566Y399449D01*
X671607Y398013D01*
X670387Y396793D01*
X668951Y395834D01*
X667356Y395173D01*
X667022Y395107D01*
X667022Y401378D01*
G37*
%LPD*%
%LPC*%
G36*
X590822Y401378D02*
X590822Y401378D01*
X597093Y401378D01*
X597027Y401044D01*
X596366Y399449D01*
X595407Y398013D01*
X594187Y396793D01*
X592751Y395834D01*
X591156Y395173D01*
X590822Y395107D01*
X590822Y401378D01*
G37*
%LPD*%
%LPC*%
G36*
X580107Y405822D02*
X580107Y405822D01*
X580173Y406156D01*
X580834Y407751D01*
X581793Y409187D01*
X583013Y410407D01*
X584449Y411366D01*
X586044Y412027D01*
X586378Y412093D01*
X586378Y405822D01*
X580107Y405822D01*
G37*
%LPD*%
%LPC*%
G36*
X580107Y177222D02*
X580107Y177222D01*
X580173Y177556D01*
X580834Y179151D01*
X581793Y180587D01*
X583013Y181807D01*
X584449Y182766D01*
X586044Y183427D01*
X586378Y183493D01*
X586378Y177222D01*
X580107Y177222D01*
G37*
%LPD*%
%LPC*%
G36*
X667022Y147378D02*
X667022Y147378D01*
X673293Y147378D01*
X673227Y147044D01*
X672566Y145449D01*
X671607Y144013D01*
X670387Y142793D01*
X668951Y141834D01*
X667356Y141173D01*
X667022Y141107D01*
X667022Y147378D01*
G37*
%LPD*%
%LPC*%
G36*
X656307Y151822D02*
X656307Y151822D01*
X656373Y152156D01*
X657034Y153751D01*
X657993Y155187D01*
X659213Y156407D01*
X660649Y157366D01*
X662244Y158027D01*
X662578Y158093D01*
X662578Y151822D01*
X656307Y151822D01*
G37*
%LPD*%
%LPC*%
G36*
X667022Y172778D02*
X667022Y172778D01*
X673293Y172778D01*
X673227Y172444D01*
X672566Y170849D01*
X671607Y169413D01*
X670387Y168193D01*
X668951Y167234D01*
X667356Y166573D01*
X667022Y166507D01*
X667022Y172778D01*
G37*
%LPD*%
%LPC*%
G36*
X590822Y172778D02*
X590822Y172778D01*
X597093Y172778D01*
X597027Y172444D01*
X596366Y170849D01*
X595407Y169413D01*
X594187Y168193D01*
X592751Y167234D01*
X591156Y166573D01*
X590822Y166507D01*
X590822Y172778D01*
G37*
%LPD*%
%LPC*%
G36*
X656307Y405822D02*
X656307Y405822D01*
X656373Y406156D01*
X657034Y407751D01*
X657993Y409187D01*
X659213Y410407D01*
X660649Y411366D01*
X662244Y412027D01*
X662578Y412093D01*
X662578Y405822D01*
X656307Y405822D01*
G37*
%LPD*%
%LPC*%
G36*
X656307Y177222D02*
X656307Y177222D01*
X656373Y177556D01*
X657034Y179151D01*
X657993Y180587D01*
X659213Y181807D01*
X660649Y182766D01*
X662244Y183427D01*
X662578Y183493D01*
X662578Y177222D01*
X656307Y177222D01*
G37*
%LPD*%
%LPC*%
G36*
X586044Y395173D02*
X586044Y395173D01*
X584449Y395834D01*
X583013Y396793D01*
X581793Y398013D01*
X580834Y399449D01*
X580173Y401044D01*
X580107Y401378D01*
X586378Y401378D01*
X586378Y395107D01*
X586044Y395173D01*
G37*
%LPD*%
%LPC*%
G36*
X662244Y141173D02*
X662244Y141173D01*
X660649Y141834D01*
X659213Y142793D01*
X657993Y144013D01*
X657034Y145449D01*
X656373Y147044D01*
X656307Y147378D01*
X662578Y147378D01*
X662578Y141107D01*
X662244Y141173D01*
G37*
%LPD*%
%LPC*%
G36*
X662244Y395173D02*
X662244Y395173D01*
X660649Y395834D01*
X659213Y396793D01*
X657993Y398013D01*
X657034Y399449D01*
X656373Y401044D01*
X656307Y401378D01*
X662578Y401378D01*
X662578Y395107D01*
X662244Y395173D01*
G37*
%LPD*%
%LPC*%
G36*
X662244Y166573D02*
X662244Y166573D01*
X660649Y167234D01*
X659213Y168193D01*
X657993Y169413D01*
X657034Y170849D01*
X656373Y172444D01*
X656307Y172778D01*
X662578Y172778D01*
X662578Y166507D01*
X662244Y166573D01*
G37*
%LPD*%
%LPC*%
G36*
X586044Y166573D02*
X586044Y166573D01*
X584449Y167234D01*
X583013Y168193D01*
X581793Y169413D01*
X580834Y170849D01*
X580173Y172444D01*
X580107Y172778D01*
X586378Y172778D01*
X586378Y166507D01*
X586044Y166573D01*
G37*
%LPD*%
%LPC*%
G36*
X152399Y507999D02*
X152399Y507999D01*
X152399Y508001D01*
X152401Y508001D01*
X152401Y507999D01*
X152399Y507999D01*
G37*
%LPD*%
%LPC*%
G36*
X50799Y723899D02*
X50799Y723899D01*
X50799Y723901D01*
X50801Y723901D01*
X50801Y723899D01*
X50799Y723899D01*
G37*
%LPD*%
%LPC*%
G36*
X393699Y38099D02*
X393699Y38099D01*
X393699Y38101D01*
X393701Y38101D01*
X393701Y38099D01*
X393699Y38099D01*
G37*
%LPD*%
%LPC*%
G36*
X241299Y38099D02*
X241299Y38099D01*
X241299Y38101D01*
X241301Y38101D01*
X241301Y38099D01*
X241299Y38099D01*
G37*
%LPD*%
D10*
X190500Y38100D03*
X215900Y38100D03*
X241300Y38100D03*
X266700Y38100D03*
X368300Y38100D03*
X393700Y38100D03*
X419100Y38100D03*
X444500Y38100D03*
X469900Y38100D03*
X495300Y38100D03*
X520700Y38100D03*
X546100Y38100D03*
X50800Y723900D03*
X50800Y698500D03*
X50800Y673100D03*
X50800Y647700D03*
X50800Y622300D03*
X50800Y596900D03*
X50800Y571500D03*
X50800Y546100D03*
X50800Y520700D03*
X50800Y495300D03*
X50800Y469900D03*
X50800Y444500D03*
X50800Y419100D03*
X50800Y393700D03*
X50800Y368300D03*
X50800Y342900D03*
X50800Y317500D03*
X50800Y292100D03*
X50800Y266700D03*
X50800Y241300D03*
X152400Y482600D03*
X152400Y508000D03*
X152400Y533400D03*
X152400Y558800D03*
X152400Y584200D03*
X152400Y609600D03*
X152400Y635000D03*
X152400Y660400D03*
D11*
X842600Y149600D03*
X842600Y175000D03*
X817200Y149600D03*
X817200Y175000D03*
X791800Y149600D03*
X791800Y175000D03*
X766400Y149600D03*
X766400Y175000D03*
X741000Y149600D03*
X741000Y175000D03*
X715600Y149600D03*
X715600Y175000D03*
X690200Y149600D03*
X690200Y175000D03*
X664800Y149600D03*
X664800Y175000D03*
X639400Y149600D03*
X639400Y175000D03*
X614000Y149600D03*
X614000Y175000D03*
X588600Y149600D03*
X588600Y175000D03*
X563200Y149600D03*
X563200Y175000D03*
X537800Y149600D03*
X537800Y175000D03*
X512400Y149600D03*
X512400Y175000D03*
X487000Y149600D03*
X487000Y175000D03*
X461600Y149600D03*
X461600Y175000D03*
X436200Y149600D03*
X436200Y175000D03*
X410800Y149600D03*
X410800Y175000D03*
X842600Y403600D03*
X842600Y429000D03*
X817200Y403600D03*
X817200Y429000D03*
X791800Y403600D03*
X791800Y429000D03*
X766400Y403600D03*
X766400Y429000D03*
X741000Y403600D03*
X741000Y429000D03*
X715600Y403600D03*
X715600Y429000D03*
X690200Y403600D03*
X690200Y429000D03*
X664800Y403600D03*
X664800Y429000D03*
X639400Y403600D03*
X639400Y429000D03*
X614000Y403600D03*
X614000Y429000D03*
X588600Y403600D03*
X588600Y429000D03*
X563200Y403600D03*
X563200Y429000D03*
X537800Y403600D03*
X537800Y429000D03*
X512400Y403600D03*
X512400Y429000D03*
X487000Y403600D03*
X487000Y429000D03*
X461600Y403600D03*
X461600Y429000D03*
X436200Y403600D03*
X436200Y429000D03*
X410800Y403600D03*
X410800Y429000D03*
D12*
X38100Y38100D03*
X876300Y38100D03*
X876300Y495300D03*
X38100Y819150D03*
D13*
X323850Y82550D03*
M02*
