G04 EAGLE Gerber RS-274X export*
G75*
%MOMM*%
%FSLAX34Y34*%
%LPD*%
%INBottom Copper*%
%IPPOS*%
%AMOC8*
5,1,8,0,0,1.08239X$1,22.5*%
G01*
%ADD10C,1.778000*%
%ADD11R,0.949959X1.031241*%
%ADD12R,1.524000X1.524000*%
%ADD13P,1.649562X8X202.500000*%
%ADD14C,4.445000*%
%ADD15C,0.254000*%
%ADD16C,0.654800*%

G36*
X2556Y3692D02*
X2556Y3692D01*
X2563Y3573D01*
X2576Y3535D01*
X2581Y3494D01*
X2624Y3384D01*
X2661Y3271D01*
X2683Y3236D01*
X2698Y3199D01*
X2767Y3103D01*
X2831Y3002D01*
X2861Y2974D01*
X2884Y2941D01*
X2976Y2865D01*
X3063Y2784D01*
X3098Y2764D01*
X3129Y2739D01*
X3237Y2688D01*
X3341Y2630D01*
X3381Y2620D01*
X3417Y2603D01*
X3534Y2581D01*
X3649Y2551D01*
X3709Y2547D01*
X3729Y2543D01*
X3750Y2545D01*
X3810Y2541D01*
X910391Y2541D01*
X910509Y2556D01*
X910628Y2563D01*
X910667Y2575D01*
X910707Y2581D01*
X910817Y2624D01*
X910930Y2661D01*
X910965Y2683D01*
X911003Y2698D01*
X911099Y2767D01*
X911199Y2831D01*
X911227Y2861D01*
X911260Y2884D01*
X911336Y2976D01*
X911417Y3062D01*
X911437Y3098D01*
X911463Y3129D01*
X911513Y3237D01*
X911571Y3341D01*
X911581Y3380D01*
X911598Y3417D01*
X911621Y3534D01*
X911650Y3649D01*
X911654Y3709D01*
X911658Y3729D01*
X911657Y3750D01*
X911661Y3810D01*
X911819Y425450D01*
X911858Y529590D01*
X911843Y529708D01*
X911836Y529827D01*
X911823Y529865D01*
X911818Y529905D01*
X911774Y530016D01*
X911738Y530129D01*
X911716Y530163D01*
X911701Y530201D01*
X911631Y530297D01*
X911567Y530398D01*
X911538Y530426D01*
X911514Y530458D01*
X911423Y530534D01*
X911336Y530616D01*
X911301Y530635D01*
X911270Y530661D01*
X911162Y530712D01*
X911057Y530770D01*
X911018Y530780D01*
X910982Y530797D01*
X910865Y530819D01*
X910749Y530849D01*
X910690Y530853D01*
X910670Y530857D01*
X910649Y530855D01*
X910589Y530859D01*
X189448Y530859D01*
X187959Y532348D01*
X187959Y853440D01*
X187944Y853558D01*
X187937Y853677D01*
X187924Y853715D01*
X187919Y853756D01*
X187876Y853866D01*
X187839Y853979D01*
X187817Y854014D01*
X187802Y854051D01*
X187733Y854147D01*
X187669Y854248D01*
X187639Y854276D01*
X187616Y854309D01*
X187524Y854385D01*
X187437Y854466D01*
X187402Y854486D01*
X187371Y854511D01*
X187263Y854562D01*
X187159Y854620D01*
X187119Y854630D01*
X187083Y854647D01*
X186966Y854669D01*
X186851Y854699D01*
X186791Y854703D01*
X186771Y854707D01*
X186750Y854705D01*
X186690Y854709D01*
X3810Y854709D01*
X3692Y854694D01*
X3573Y854687D01*
X3535Y854674D01*
X3494Y854669D01*
X3384Y854626D01*
X3271Y854589D01*
X3236Y854567D01*
X3199Y854552D01*
X3103Y854483D01*
X3002Y854419D01*
X2974Y854389D01*
X2941Y854366D01*
X2865Y854274D01*
X2784Y854187D01*
X2764Y854152D01*
X2739Y854121D01*
X2688Y854013D01*
X2630Y853909D01*
X2620Y853869D01*
X2603Y853833D01*
X2581Y853716D01*
X2551Y853601D01*
X2547Y853541D01*
X2543Y853521D01*
X2545Y853500D01*
X2541Y853440D01*
X2541Y3810D01*
X2556Y3692D01*
G37*
%LPC*%
G36*
X176531Y786131D02*
X176531Y786131D01*
X176531Y514350D01*
X176546Y514232D01*
X176553Y514113D01*
X176566Y514075D01*
X176571Y514034D01*
X176614Y513924D01*
X176651Y513811D01*
X176673Y513776D01*
X176688Y513739D01*
X176758Y513643D01*
X176821Y513542D01*
X176851Y513514D01*
X176874Y513481D01*
X176966Y513406D01*
X177053Y513324D01*
X177088Y513304D01*
X177119Y513279D01*
X177227Y513228D01*
X177331Y513170D01*
X177371Y513160D01*
X177407Y513143D01*
X177524Y513121D01*
X177639Y513091D01*
X177700Y513087D01*
X177720Y513083D01*
X177740Y513085D01*
X177800Y513081D01*
X830581Y513081D01*
X830581Y450850D01*
X830596Y450732D01*
X830603Y450613D01*
X830616Y450575D01*
X830621Y450534D01*
X830664Y450424D01*
X830701Y450311D01*
X830723Y450276D01*
X830738Y450239D01*
X830808Y450143D01*
X830871Y450042D01*
X830901Y450014D01*
X830924Y449981D01*
X831016Y449906D01*
X831103Y449824D01*
X831138Y449804D01*
X831169Y449779D01*
X831277Y449728D01*
X831381Y449670D01*
X831421Y449660D01*
X831457Y449643D01*
X831574Y449621D01*
X831689Y449591D01*
X831750Y449587D01*
X831770Y449583D01*
X831790Y449585D01*
X831850Y449581D01*
X875031Y449581D01*
X875031Y425450D01*
X875046Y425332D01*
X875053Y425213D01*
X875066Y425175D01*
X875071Y425134D01*
X875114Y425024D01*
X875151Y424911D01*
X875173Y424876D01*
X875188Y424839D01*
X875258Y424743D01*
X875321Y424642D01*
X875351Y424614D01*
X875374Y424581D01*
X875466Y424506D01*
X875553Y424424D01*
X875588Y424404D01*
X875619Y424379D01*
X875727Y424328D01*
X875831Y424270D01*
X875871Y424260D01*
X875907Y424243D01*
X876024Y424221D01*
X876139Y424191D01*
X876200Y424187D01*
X876220Y424183D01*
X876240Y424185D01*
X876300Y424181D01*
X900431Y424181D01*
X900431Y71119D01*
X844550Y71119D01*
X844432Y71104D01*
X844313Y71097D01*
X844275Y71084D01*
X844234Y71079D01*
X844124Y71036D01*
X844011Y70999D01*
X843976Y70977D01*
X843939Y70962D01*
X843843Y70893D01*
X843742Y70829D01*
X843714Y70799D01*
X843681Y70776D01*
X843606Y70684D01*
X843524Y70597D01*
X843504Y70562D01*
X843479Y70531D01*
X843428Y70423D01*
X843370Y70319D01*
X843360Y70279D01*
X843343Y70243D01*
X843321Y70126D01*
X843291Y70011D01*
X843287Y69951D01*
X843283Y69931D01*
X843285Y69910D01*
X843283Y69892D01*
X843283Y69891D01*
X843281Y69850D01*
X843281Y13969D01*
X71119Y13969D01*
X71119Y69850D01*
X71104Y69968D01*
X71097Y70087D01*
X71084Y70125D01*
X71079Y70166D01*
X71036Y70276D01*
X70999Y70389D01*
X70977Y70424D01*
X70962Y70461D01*
X70893Y70557D01*
X70829Y70658D01*
X70799Y70686D01*
X70776Y70719D01*
X70684Y70795D01*
X70597Y70876D01*
X70562Y70896D01*
X70531Y70921D01*
X70423Y70972D01*
X70319Y71030D01*
X70279Y71040D01*
X70243Y71057D01*
X70126Y71079D01*
X70011Y71109D01*
X69951Y71113D01*
X69931Y71117D01*
X69910Y71115D01*
X69850Y71119D01*
X13969Y71119D01*
X13969Y786131D01*
X176531Y786131D01*
G37*
%LPD*%
%LPC*%
G36*
X40639Y821689D02*
X40639Y821689D01*
X40639Y843786D01*
X42255Y843604D01*
X44967Y842985D01*
X47592Y842067D01*
X50099Y840860D01*
X52454Y839380D01*
X54629Y837645D01*
X56595Y835679D01*
X58330Y833504D01*
X59810Y831149D01*
X61017Y828642D01*
X61935Y826017D01*
X62554Y823305D01*
X62736Y821689D01*
X40639Y821689D01*
G37*
%LPD*%
%LPC*%
G36*
X878839Y497839D02*
X878839Y497839D01*
X878839Y519936D01*
X880455Y519754D01*
X883167Y519135D01*
X885792Y518217D01*
X888299Y517010D01*
X890654Y515530D01*
X892829Y513795D01*
X894795Y511829D01*
X896530Y509654D01*
X898010Y507299D01*
X899217Y504792D01*
X900135Y502167D01*
X900754Y499455D01*
X900936Y497839D01*
X878839Y497839D01*
G37*
%LPD*%
%LPC*%
G36*
X40639Y40639D02*
X40639Y40639D01*
X40639Y62736D01*
X42255Y62554D01*
X44967Y61935D01*
X47592Y61017D01*
X50099Y59810D01*
X52454Y58330D01*
X54629Y56595D01*
X56595Y54629D01*
X58330Y52454D01*
X59810Y50099D01*
X61017Y47592D01*
X61935Y44967D01*
X62554Y42255D01*
X62736Y40639D01*
X40639Y40639D01*
G37*
%LPD*%
%LPC*%
G36*
X878839Y40639D02*
X878839Y40639D01*
X878839Y62736D01*
X880455Y62554D01*
X883167Y61935D01*
X885792Y61017D01*
X888299Y59810D01*
X890654Y58330D01*
X892829Y56595D01*
X894795Y54629D01*
X896530Y52454D01*
X898010Y50099D01*
X899217Y47592D01*
X900135Y44967D01*
X900754Y42255D01*
X900936Y40639D01*
X878839Y40639D01*
G37*
%LPD*%
%LPC*%
G36*
X13464Y821689D02*
X13464Y821689D01*
X13646Y823305D01*
X14265Y826017D01*
X15183Y828642D01*
X16390Y831149D01*
X17870Y833504D01*
X19605Y835679D01*
X21571Y837645D01*
X23746Y839380D01*
X26101Y840860D01*
X28608Y842067D01*
X31233Y842985D01*
X33945Y843604D01*
X35561Y843786D01*
X35561Y821689D01*
X13464Y821689D01*
G37*
%LPD*%
%LPC*%
G36*
X40639Y816611D02*
X40639Y816611D01*
X62736Y816611D01*
X62554Y814995D01*
X61935Y812283D01*
X61017Y809658D01*
X59810Y807151D01*
X58330Y804796D01*
X56595Y802621D01*
X54629Y800655D01*
X52454Y798920D01*
X50099Y797440D01*
X47592Y796233D01*
X44967Y795315D01*
X42255Y794696D01*
X40639Y794514D01*
X40639Y816611D01*
G37*
%LPD*%
%LPC*%
G36*
X851664Y497839D02*
X851664Y497839D01*
X851846Y499455D01*
X852465Y502167D01*
X853383Y504792D01*
X854590Y507299D01*
X856070Y509654D01*
X857805Y511829D01*
X859771Y513795D01*
X861946Y515530D01*
X864301Y517010D01*
X866808Y518217D01*
X869433Y519135D01*
X872145Y519754D01*
X873761Y519936D01*
X873761Y497839D01*
X851664Y497839D01*
G37*
%LPD*%
%LPC*%
G36*
X878839Y492761D02*
X878839Y492761D01*
X900936Y492761D01*
X900754Y491145D01*
X900135Y488433D01*
X899217Y485808D01*
X898010Y483301D01*
X896530Y480946D01*
X894795Y478771D01*
X892829Y476805D01*
X890654Y475070D01*
X888299Y473590D01*
X885792Y472383D01*
X883167Y471465D01*
X880455Y470846D01*
X878839Y470664D01*
X878839Y492761D01*
G37*
%LPD*%
%LPC*%
G36*
X13464Y40639D02*
X13464Y40639D01*
X13646Y42255D01*
X14265Y44967D01*
X15183Y47592D01*
X16390Y50099D01*
X17870Y52454D01*
X19605Y54629D01*
X21571Y56595D01*
X23746Y58330D01*
X26101Y59810D01*
X28608Y61017D01*
X31233Y61935D01*
X33945Y62554D01*
X35561Y62736D01*
X35561Y40639D01*
X13464Y40639D01*
G37*
%LPD*%
%LPC*%
G36*
X851664Y40639D02*
X851664Y40639D01*
X851846Y42255D01*
X852465Y44967D01*
X853383Y47592D01*
X854590Y50099D01*
X856070Y52454D01*
X857805Y54629D01*
X859771Y56595D01*
X861946Y58330D01*
X864301Y59810D01*
X866808Y61017D01*
X869433Y61935D01*
X872145Y62554D01*
X873761Y62736D01*
X873761Y40639D01*
X851664Y40639D01*
G37*
%LPD*%
%LPC*%
G36*
X878839Y35561D02*
X878839Y35561D01*
X900936Y35561D01*
X900754Y33945D01*
X900135Y31233D01*
X899217Y28608D01*
X898010Y26101D01*
X896530Y23746D01*
X894795Y21571D01*
X892829Y19605D01*
X890654Y17870D01*
X888299Y16390D01*
X885792Y15183D01*
X883167Y14265D01*
X880455Y13646D01*
X878839Y13464D01*
X878839Y35561D01*
G37*
%LPD*%
%LPC*%
G36*
X40639Y35561D02*
X40639Y35561D01*
X62736Y35561D01*
X62554Y33945D01*
X61935Y31233D01*
X61017Y28608D01*
X59810Y26101D01*
X58330Y23746D01*
X56595Y21571D01*
X54629Y19605D01*
X52454Y17870D01*
X50099Y16390D01*
X47592Y15183D01*
X44967Y14265D01*
X42255Y13646D01*
X40639Y13464D01*
X40639Y35561D01*
G37*
%LPD*%
%LPC*%
G36*
X33945Y794696D02*
X33945Y794696D01*
X31233Y795315D01*
X28608Y796233D01*
X26101Y797440D01*
X23746Y798920D01*
X21571Y800655D01*
X19605Y802621D01*
X17870Y804796D01*
X16390Y807151D01*
X15183Y809658D01*
X14265Y812283D01*
X13646Y814995D01*
X13464Y816611D01*
X35561Y816611D01*
X35561Y794514D01*
X33945Y794696D01*
G37*
%LPD*%
%LPC*%
G36*
X872145Y470846D02*
X872145Y470846D01*
X869433Y471465D01*
X866808Y472383D01*
X864301Y473590D01*
X861946Y475070D01*
X859771Y476805D01*
X857805Y478771D01*
X856070Y480946D01*
X854590Y483301D01*
X853383Y485808D01*
X852465Y488433D01*
X851846Y491145D01*
X851664Y492761D01*
X873761Y492761D01*
X873761Y470664D01*
X872145Y470846D01*
G37*
%LPD*%
%LPC*%
G36*
X872145Y13646D02*
X872145Y13646D01*
X869433Y14265D01*
X866808Y15183D01*
X864301Y16390D01*
X861946Y17870D01*
X859771Y19605D01*
X857805Y21571D01*
X856070Y23746D01*
X854590Y26101D01*
X853383Y28608D01*
X852465Y31233D01*
X851846Y33945D01*
X851664Y35561D01*
X873761Y35561D01*
X873761Y13464D01*
X872145Y13646D01*
G37*
%LPD*%
%LPC*%
G36*
X33945Y13646D02*
X33945Y13646D01*
X31233Y14265D01*
X28608Y15183D01*
X26101Y16390D01*
X23746Y17870D01*
X21571Y19605D01*
X19605Y21571D01*
X17870Y23746D01*
X16390Y26101D01*
X15183Y28608D01*
X14265Y31233D01*
X13646Y33945D01*
X13464Y35561D01*
X35561Y35561D01*
X35561Y13464D01*
X33945Y13646D01*
G37*
%LPD*%
%LPC*%
G36*
X38099Y819149D02*
X38099Y819149D01*
X38099Y819151D01*
X38101Y819151D01*
X38101Y819149D01*
X38099Y819149D01*
G37*
%LPD*%
%LPC*%
G36*
X876299Y495299D02*
X876299Y495299D01*
X876299Y495301D01*
X876301Y495301D01*
X876301Y495299D01*
X876299Y495299D01*
G37*
%LPD*%
%LPC*%
G36*
X876299Y38099D02*
X876299Y38099D01*
X876299Y38101D01*
X876301Y38101D01*
X876301Y38099D01*
X876299Y38099D01*
G37*
%LPD*%
%LPC*%
G36*
X38099Y38099D02*
X38099Y38099D01*
X38099Y38101D01*
X38101Y38101D01*
X38101Y38099D01*
X38099Y38099D01*
G37*
%LPD*%
D10*
X190500Y38100D03*
X215900Y38100D03*
X241300Y38100D03*
X266700Y38100D03*
X368300Y38100D03*
X393700Y38100D03*
X419100Y38100D03*
X444500Y38100D03*
X469900Y38100D03*
X495300Y38100D03*
X520700Y38100D03*
X546100Y38100D03*
X50800Y723900D03*
X50800Y698500D03*
X50800Y673100D03*
X50800Y647700D03*
X50800Y622300D03*
X50800Y596900D03*
X50800Y571500D03*
X50800Y546100D03*
X50800Y520700D03*
X50800Y495300D03*
X50800Y469900D03*
X50800Y444500D03*
X50800Y419100D03*
X50800Y393700D03*
X50800Y368300D03*
X50800Y342900D03*
X50800Y317500D03*
X50800Y292100D03*
X50800Y266700D03*
X50800Y241300D03*
D11*
X325501Y69850D03*
X309499Y69850D03*
X309499Y95250D03*
X325501Y95250D03*
D10*
X152400Y482600D03*
X152400Y508000D03*
X152400Y533400D03*
X152400Y558800D03*
X152400Y584200D03*
X152400Y609600D03*
X152400Y635000D03*
X152400Y660400D03*
D12*
X842600Y149600D03*
D13*
X842600Y175000D03*
X817200Y149600D03*
X817200Y175000D03*
X791800Y149600D03*
X791800Y175000D03*
X766400Y149600D03*
X766400Y175000D03*
X741000Y149600D03*
X741000Y175000D03*
X715600Y149600D03*
X715600Y175000D03*
X690200Y149600D03*
X690200Y175000D03*
X664800Y149600D03*
X664800Y175000D03*
X639400Y149600D03*
X639400Y175000D03*
X614000Y149600D03*
X614000Y175000D03*
X588600Y149600D03*
X588600Y175000D03*
X563200Y149600D03*
X563200Y175000D03*
X537800Y149600D03*
X537800Y175000D03*
X512400Y149600D03*
X512400Y175000D03*
X487000Y149600D03*
X487000Y175000D03*
X461600Y149600D03*
X461600Y175000D03*
X436200Y149600D03*
X436200Y175000D03*
X410800Y149600D03*
X410800Y175000D03*
D12*
X842600Y403600D03*
D13*
X842600Y429000D03*
X817200Y403600D03*
X817200Y429000D03*
X791800Y403600D03*
X791800Y429000D03*
X766400Y403600D03*
X766400Y429000D03*
X741000Y403600D03*
X741000Y429000D03*
X715600Y403600D03*
X715600Y429000D03*
X690200Y403600D03*
X690200Y429000D03*
X664800Y403600D03*
X664800Y429000D03*
X639400Y403600D03*
X639400Y429000D03*
X614000Y403600D03*
X614000Y429000D03*
X588600Y403600D03*
X588600Y429000D03*
X563200Y403600D03*
X563200Y429000D03*
X537800Y403600D03*
X537800Y429000D03*
X512400Y403600D03*
X512400Y429000D03*
X487000Y403600D03*
X487000Y429000D03*
X461600Y403600D03*
X461600Y429000D03*
X436200Y403600D03*
X436200Y429000D03*
X410800Y403600D03*
X410800Y429000D03*
D14*
X38100Y38100D03*
X876300Y38100D03*
X876300Y495300D03*
X38100Y819150D03*
D15*
X523830Y170266D02*
X517135Y163570D01*
X523830Y186430D02*
X741000Y403600D01*
X523830Y186430D02*
X523830Y170266D01*
X517135Y163570D02*
X510206Y163570D01*
X498430Y151795D01*
X498430Y144866D01*
X424432Y70868D01*
X423415Y69850D01*
X424432Y70868D02*
X326519Y70868D01*
X325501Y69850D01*
X491735Y163570D02*
X498430Y170266D01*
X498430Y186430D02*
X715600Y403600D01*
X498430Y186430D02*
X498430Y170266D01*
X491735Y163570D02*
X484806Y163570D01*
X473030Y151795D01*
X473030Y144866D01*
X423415Y95250D01*
X325501Y95250D01*
X326650Y149600D02*
X410800Y149600D01*
X326650Y149600D02*
X165100Y311150D01*
X165100Y596900D02*
X152400Y609600D01*
X165100Y596900D02*
X165100Y311150D01*
X133350Y565150D02*
X152400Y584200D01*
X133350Y565150D02*
X133350Y317500D01*
X317500Y133350D01*
X424770Y154335D02*
X431466Y161030D01*
X447630Y161030D02*
X461600Y175000D01*
X447630Y161030D02*
X431466Y161030D01*
X424770Y147406D02*
X410715Y133350D01*
X424770Y147406D02*
X424770Y154335D01*
X410715Y133350D02*
X317500Y133350D01*
X309499Y69850D02*
X328549Y50800D01*
X406400Y50800D01*
X419100Y38100D01*
X309499Y61849D02*
X309499Y69850D01*
X309499Y61849D02*
X273050Y25400D01*
X203200Y25400D01*
X190500Y38100D01*
X273050Y95250D02*
X309499Y95250D01*
X273050Y95250D02*
X215900Y38100D01*
D16*
X323850Y82550D03*
D15*
X322199Y82550D01*
X309499Y95250D01*
M02*
